<svg width="350" height="350" viewBox="0 0 350 350" fill="none" xmlns="http://www.w3.org/2000/svg">
<rect width="350" height="350" fill="white"/>
<path fill-rule="evenodd" clip-rule="evenodd" d="M255.58 216.004C250.49 217.994 244.601 220.982 244.055 226.42C250.97 221.1 259.511 217.926 268.221 217.438C262.204 225.019 254.605 231.34 246.055 235.877C238.377 239.952 228.656 244.297 227.997 252.965C236.244 243.145 248.922 237.2 261.745 237.141C253.541 249.156 240.387 257.679 226.068 260.255C226.559 263.947 242.436 271.856 247.06 273.377C250.353 287.525 251.78 305.873 255.073 320.021C255.883 323.502 256.597 327.503 254.465 330.372C252.35 333.219 248.355 333.708 244.818 333.96C230.877 334.951 211.803 335.942 197.862 336.933C196.193 329.371 194.524 321.809 192.855 314.247C169.339 316.431 68.5264 339.532 50.0258 327.413C-21.3925 280.628 69.6783 264.69 71.6354 207.729C72.0842 194.669 32.8159 171.839 33.4394 158.493C33.8465 149.779 35.1955 141.266 39.5071 133.783C43.8187 126.3 50.6508 120.536 58.0765 116.127C47.8531 113.499 40.1094 103.308 40.3165 92.7547C40.5237 82.201 48.6614 72.3219 58.9801 70.0973C54.1151 64.2998 46.4545 61.6426 40.8589 56.5466C34.3405 50.6102 31.065 41.034 33.4394 32.5432C35.8138 24.0525 44.1738 17.3721 52.9822 17.7485C60.2176 18.0577 66.5849 22.6339 71.6354 27.8242C79.4682 35.8737 85.2935 45.862 88.443 56.6429C90.5422 63.8287 98.2357 67.4844 104.733 71.2031C111.23 74.9219 117.977 81.3996 116.147 88.6585C113.727 78.7255 149.696 90.5569 182.318 93.4532C186.65 93.8377 191.311 94.3976 194.513 97.3397C199.114 101.568 206.022 103.11 211.984 101.24C213.881 105.943 215.277 111.225 213.664 116.032C212.052 120.84 206.34 124.509 201.774 122.304C202.966 128.436 204.158 134.567 205.349 140.699C217.024 140.84 228.697 141.078 240.367 141.414C246.552 141.593 253.017 141.874 258.393 144.938C263.768 148.003 270.963 143.661 276.275 132.508C272.838 150.707 276.911 157.98 283.935 159.957C283.949 159.819 284.495 159.885 284.511 159.747C286.603 141.762 298.807 125.793 315.791 119.476C314.289 122.937 303.543 129.773 296.081 138.503C288.791 147.03 285.302 158.446 284.941 160.496C296.515 157.462 300.373 166.084 320.01 158.493C311.037 169.281 293.746 171.937 281.949 164.34C276.383 170.547 276.694 177.42 272.752 184.766C279.449 176.442 288.343 183.822 281.287 189.217C285.032 189.577 289.081 190.07 291.797 192.672C294.513 195.275 294.581 200.753 291.077 202.123C279.245 206.75 267.412 211.377 255.58 216.004Z" fill="#AC94E8"/>
<path fill-rule="evenodd" clip-rule="evenodd" d="M236.374 174.986C236.802 174.171 237.267 173.317 238.056 172.843C238.844 172.368 240.053 172.466 240.478 173.283C240.929 174.151 240.257 175.199 239.468 175.779C238.679 176.359 237.709 176.767 237.196 177.602C239.967 179.427 242.738 181.253 245.508 183.079C247.678 184.509 250.134 186.551 249.689 189.111C249.429 190.613 248.157 191.78 246.739 192.34C245.322 192.9 243.764 192.958 242.241 193.002C232.005 193.297 221.758 193.245 211.525 192.847C210.815 192.819 210.023 192.753 209.55 192.223C209.184 191.812 209.108 191.226 209.049 190.679C208.46 185.232 207.871 179.786 207.282 174.339C207.26 174.138 207.24 173.928 207.312 173.739C207.615 172.943 208.804 173.433 209.47 173.964C214.18 177.724 221.711 177.282 225.95 172.997C226.974 171.962 228.717 172.096 230.033 172.72C231.349 173.344 232.45 174.36 233.77 174.975C233.629 174.212 234.302 173.407 235.078 173.41C235.854 173.413 236.521 174.224 236.374 174.986Z" fill="white"/>
<path fill-rule="evenodd" clip-rule="evenodd" d="M71.5292 114.872C71.5292 114.872 70.3857 101.176 73.2639 96.7727C76.1421 92.3698 87.1057 91.0442 87.1057 91.0442C87.1057 91.0442 117.155 90.6515 133.39 91.2721C149.626 91.8927 182.096 94.6752 182.096 94.6752C182.096 94.6752 186.315 95.5956 188.212 96.7727C190.109 97.9498 192.754 101.29 192.754 101.29C192.754 101.29 198.511 102.129 201.375 102.244C204.238 102.358 206.862 101.852 206.862 101.852C206.862 101.852 210.512 112.496 207.932 117.57C205.351 122.643 196.688 121.856 196.688 121.856L199.755 140.843C199.755 140.843 196.109 142.566 194.117 144.726C192.124 146.887 191.324 149.984 191.324 149.984L197.246 207.729C197.246 207.729 198.988 210.731 202.73 211.871C206.473 213.011 214.904 213.108 214.904 213.108C214.904 213.108 214.603 218.931 214.904 221.437C215.204 223.942 215.473 225.315 215.473 225.315L221.82 270.758C221.82 270.758 215.651 271.881 209.546 273.362C203.441 274.843 191.324 278.157 191.324 278.157C191.324 278.157 187.053 280.104 186.499 283.248C185.946 286.393 188.212 295.841 188.212 295.841L120.192 301.026C120.192 301.026 113.572 301.151 111.296 299.716C109.019 298.281 108.395 293.593 108.395 293.593L99.1945 210.843C99.1945 210.843 84.4924 211.203 80.1985 208.752C75.9045 206.3 75.3852 197.249 75.3852 197.249C75.3852 197.249 76.0986 192.119 75.3852 188.559C75.1472 187.371 72.0377 174.494 70.9931 162.242C70.402 155.309 78.5602 149.984 78.5602 149.984L71.5292 114.872Z" fill="white"/>
<path fill-rule="evenodd" clip-rule="evenodd" d="M119.526 95.8225C118.997 96.5681 119.44 97.6805 120.204 98.182C120.969 98.6836 121.932 98.7401 122.845 98.7812C132.768 99.2278 142.691 99.6743 152.614 100.121C153.581 100.164 154.652 100.174 155.384 99.5414C156.117 98.9089 156.02 97.4004 155.064 97.2484C144.03 95.494 132.833 94.7654 121.664 95.0751C120.88 95.0968 119.98 95.1828 119.526 95.8225" fill="#F4F4F4"/>
<path fill-rule="evenodd" clip-rule="evenodd" d="M163.674 166.946L161.096 154.844C161.096 154.844 160.975 157.34 159.61 158.355C158.245 159.37 155.545 158.971 155.545 158.971C155.545 158.971 155.118 150.52 157.018 147.947C158.918 145.374 160.79 147.804 164.399 146.981C168.005 146.159 167.258 143.45 171.448 144.656C175.638 145.862 178.734 154.83 178.734 154.83C178.734 154.83 175.449 155.931 174.051 155.648C172.653 155.366 172.994 153.67 172.994 153.67C172.994 153.67 172.003 153.249 172.256 156.222C172.378 157.666 173.472 159.838 174.051 162.68C174.267 163.738 174.051 166.115 174.051 166.115C174.051 166.115 170.322 166.496 167.1 167.185C163.878 167.875 163.674 166.946 163.674 166.946Z" fill="#F4F4F4"/>
<path fill-rule="evenodd" clip-rule="evenodd" d="M72.1259 136.845C70.8848 136.177 69.8756 135.157 68.8864 134.153C66.3348 131.563 63.7513 128.931 61.9808 125.755C61.8122 125.453 61.6465 125.106 61.7437 124.774C61.8409 124.441 62.3482 124.253 62.5379 124.542C65.6153 129.24 69.5015 133.407 73.9741 136.804C73.5719 137.345 72.7193 137.164 72.1259 136.845Z" fill="#170F2B"/>
<path fill-rule="evenodd" clip-rule="evenodd" d="M75.8426 77.3831C76.5758 76.6278 76.9668 75.6115 77.3044 74.6145C78.3571 71.5055 79.0745 68.2831 79.44 65.0211C79.5059 64.4335 79.6137 63.757 80.1235 63.4576C80.6968 66.2545 79.9867 69.1369 79.2807 71.9033C78.6599 74.3354 77.9726 76.8892 76.212 78.6783C76.0339 78.8593 75.8064 79.0437 75.5559 79.0019C75.2183 78.9454 75.0829 78.4966 75.2035 78.1761C75.324 77.8557 75.6042 77.6288 75.8426 77.3831L75.8426 77.3831Z" fill="#170F2B"/>
<path fill-rule="evenodd" clip-rule="evenodd" d="M252.803 101.779C253.152 101.686 253.507 101.961 253.659 102.288C253.812 102.616 253.823 102.988 253.89 103.343C254.155 104.729 255.405 105.867 256.81 106C256.985 106.407 256.598 106.815 256.291 107.135C255.594 107.865 255.154 108.835 255.065 109.84C255.007 110.492 254.869 111.4 254.215 111.391C253.689 111.384 253.458 110.748 253.268 110.257C252.805 109.058 251.761 108.099 250.527 107.74C250.268 107.665 250.159 107.333 250.23 107.073C250.302 106.813 250.499 106.61 250.687 106.416C251.498 105.585 252.321 104.6 252.312 103.438C252.307 102.81 252.196 101.941 252.803 101.779Z" fill="#FFA500"/>
<path fill-rule="evenodd" clip-rule="evenodd" d="M277.378 210.887C276.289 212.006 275.904 213.757 276.422 215.229C275.848 215.485 275.419 214.695 275.135 214.134C274.709 213.293 273.904 212.652 272.988 212.427C274.315 211.59 275.14 210.016 275.074 208.449C275.607 208.101 276.204 208.825 276.358 209.443C276.511 210.061 276.741 210.865 277.378 210.887Z" fill="#F4F4F4"/>
<path fill-rule="evenodd" clip-rule="evenodd" d="M268.086 212.985C268.718 213.986 269.616 214.819 270.662 215.372C271.038 215.571 270.697 216.125 270.387 216.415C269.604 217.147 269.109 218.177 269.026 219.245C268.342 218.559 267.658 217.873 266.973 217.188C266.7 216.914 266.412 216.489 266.647 216.182C267.365 215.247 267.862 214.143 268.086 212.985Z" fill="#F4F4F4"/>
<path fill-rule="evenodd" clip-rule="evenodd" d="M222.379 92.3729C223.001 88.407 224.507 84.5096 227.151 81.4894C229.796 78.4691 233.656 76.4074 237.671 76.4107C241.685 76.4139 245.739 78.6874 247.407 82.3388C248.271 84.2281 248.482 86.3549 248.424 88.4312C248.312 92.38 247.251 96.2988 245.356 99.7648C243.647 102.89 241.19 105.702 238 107.287C234.81 108.873 230.834 109.086 227.733 107.333C225.278 105.945 223.56 103.454 222.742 100.755C221.923 98.0555 221.941 95.1592 222.379 92.3729M246.914 89.3719C246.987 86.913 246.581 84.3739 245.288 82.2811C244.502 81.0088 243.401 79.9328 242.111 79.1762C237.951 76.7363 232.288 78.0471 228.833 81.4117C225.377 84.7762 223.879 89.7489 223.725 94.5694C223.643 97.1408 223.919 99.7774 225.012 102.106C226.105 104.435 228.106 106.427 230.598 107.067C233.858 107.904 237.299 106.328 239.855 104.138C244.121 100.484 246.749 94.986 246.914 89.3719Z" fill="#FFA500"/>
<path fill-rule="evenodd" clip-rule="evenodd" d="M263.458 89.6192C262.794 90.487 262.1 91.627 262.609 92.5936C262.792 92.9393 262.32 93.3419 261.945 93.2328C261.569 93.1236 261.356 92.7271 261.256 92.3492C261.156 91.9713 261.124 91.5658 260.923 91.2303C260.723 90.8948 260.267 90.6616 259.936 90.8684C259.463 90.8124 259.415 90.1011 259.689 89.7128C259.964 89.3246 260.415 89.0577 260.583 88.6132C260.717 88.2613 260.645 87.8664 260.708 87.4953C260.772 87.1242 261.087 86.728 261.452 86.8228C261.439 87.475 261.515 88.1517 261.846 88.7138C262.177 89.276 262.81 89.6966 263.458 89.6192Z" fill="#FFA500"/>
<path fill-rule="evenodd" clip-rule="evenodd" d="M204.076 88.3343C204.595 87.7308 205.247 87.2143 206.012 86.9946C206.777 86.7748 207.664 86.8906 208.262 87.4166C208.912 87.9889 209.116 88.9452 208.977 89.8C208.839 90.6549 208.408 91.4317 207.954 92.1694C207.365 93.1266 206.726 94.0527 206.04 94.9426C205.825 95.2205 205.59 95.5071 205.262 95.6309C204.828 95.7945 204.345 95.6353 203.917 95.4565C202.414 94.8283 201.017 93.947 199.803 92.861C198.691 91.8664 197.666 90.4089 198.117 88.9869C198.404 88.0809 199.28 87.4256 200.22 87.2857C201.16 87.1458 202.134 87.4771 202.881 88.0639C203.239 88.3447 203.779 88.679 204.076 88.3343M199.328 88.8606C198.618 89.837 199.389 91.205 200.283 92.0157C201.399 93.0274 202.724 93.7748 204.037 94.5134C204.205 94.6083 204.394 94.7066 204.583 94.6658C204.752 94.6294 204.877 94.4912 204.988 94.3594C205.877 93.3058 206.674 92.174 207.365 90.9814C207.897 90.064 208.288 88.716 207.431 88.0915C206.752 87.5974 205.764 87.9955 205.189 88.6066C204.614 89.2177 204.252 90.0156 203.624 90.5717C203.133 89.7983 202.611 88.9949 201.816 88.541C201.02 88.0872 199.867 88.1197 199.328 88.8606H199.328Z" fill="#FFA500"/>
<path fill-rule="evenodd" clip-rule="evenodd" d="M193.91 61.648C195.537 60.3794 197.347 59.3444 199.265 58.5847C200.441 58.119 201.783 57.7605 202.946 58.2593C204.809 59.0584 205.171 61.7331 204.191 63.5072C203.211 65.2813 201.353 66.3568 199.583 67.3451C196.113 69.2833 192.643 71.2215 189.173 73.1597C189.856 71.7959 189.085 70.1949 188.454 68.8062C187.032 65.6785 186.288 62.2448 186.287 58.8091C186.287 57.7238 186.368 56.6058 186.844 55.6304C187.32 54.6551 188.27 53.8462 189.355 53.8207C191.092 53.7798 192.246 55.588 192.832 57.223C193.345 58.6548 193.707 60.1407 193.91 61.648ZM201.265 59.1614C198.458 59.7316 195.843 61.2081 193.905 63.3167C193.715 63.5244 193.344 63.4329 193.169 63.2111C192.995 62.9894 192.962 62.692 192.929 62.4119C192.71 60.557 192.225 58.7337 191.493 57.0154C191.085 56.0574 190.402 54.9996 189.36 54.9827C188.589 54.9702 187.918 55.5881 187.633 56.3054C187.348 57.0227 187.372 57.8213 187.427 58.591C187.731 62.8842 188.861 67.1174 190.736 70.9916C193.805 69.2713 196.875 67.5511 199.945 65.8308C200.903 65.2941 201.878 64.7441 202.622 63.9373C203.367 63.1306 203.857 62.0096 203.64 60.9332C203.424 59.8568 202.34 58.9428 201.265 59.1614Z" fill="#FFA500"/>
<path fill-rule="evenodd" clip-rule="evenodd" d="M172.43 274.291C181.39 273.27 190.407 272.756 199.425 272.752C201.079 272.751 202.518 271.466 203.19 269.955C203.862 268.443 203.916 266.738 203.917 265.084C203.92 258.938 203.342 252.808 202.765 246.689C202.531 244.208 202.296 241.726 202.062 239.245C201.92 237.739 201.769 236.2 201.135 234.827C200.035 232.444 197.599 230.895 195.061 230.227C192.522 229.56 189.854 229.651 187.232 229.747C178.524 230.066 169.815 230.385 161.107 230.704C166.127 228.863 171.594 228.777 176.941 228.711C181.039 228.661 185.138 228.611 189.237 228.561C193.426 228.51 198.213 228.72 200.886 231.947C202.612 234.031 202.993 236.886 203.282 239.577C204.191 248.051 204.856 256.551 205.278 265.063C205.417 267.884 205.305 271.199 203.008 272.842C201.723 273.761 200.057 273.899 198.481 274.006C188.884 274.656 179.288 275.306 169.691 275.956C167.438 276.109 165.063 276.239 163.036 275.243C162.332 274.897 161.609 274.115 161.987 273.428C165.107 275.127 168.901 274.693 172.43 274.291Z" fill="#170F2B"/>
<path fill-rule="evenodd" clip-rule="evenodd" d="M134.476 138.359C134.656 138.628 134.697 138.963 134.733 139.284C134.817 140.032 134.901 140.78 134.985 141.528C135.084 142.415 135.105 143.488 134.369 143.995C133.977 144.264 133.471 144.287 132.996 144.299C122.985 144.57 112.975 144.84 102.964 145.111C102.32 145.128 101.575 145.1 101.18 144.591C100.932 144.272 100.894 143.842 100.871 143.438C100.798 142.17 100.777 140.899 100.81 139.629C100.815 139.436 100.826 139.228 100.946 139.076C101.09 138.894 101.343 138.85 101.573 138.819C111.916 137.418 122.399 137.048 132.816 137.716C133.431 137.756 134.133 137.847 134.476 138.359M134.065 143.224C133.048 142.675 134.072 141.065 133.703 139.971C133.385 139.03 132.178 138.808 131.187 138.751C121.748 138.214 112.26 138.549 102.882 139.751C102.537 139.796 102.154 139.862 101.944 140.14C101.737 140.415 101.774 140.796 101.822 141.137C101.895 141.664 101.968 142.192 102.041 142.719C102.098 143.135 102.186 143.601 102.535 143.834C102.788 144.003 103.114 144.001 103.419 143.993C113.634 143.737 123.849 143.481 134.065 143.224Z" fill="#170F2B"/>
<path fill-rule="evenodd" clip-rule="evenodd" d="M153.309 156.082C153.357 154.971 153.405 153.86 153.452 152.749C153.545 150.582 153.659 148.335 154.666 146.414C155.673 144.494 157.846 143.001 159.957 143.5C161.277 143.812 162.494 144.85 163.822 144.571C164.978 144.329 165.687 143.186 166.663 142.522C168.991 140.937 172.236 142.409 174.162 144.464C176.237 146.678 177.585 149.563 177.955 152.575C177.986 152.83 178.002 153.118 177.837 153.316C177.701 153.48 177.478 153.537 177.27 153.584C176.468 153.768 175.667 153.951 174.866 154.135C174.183 154.291 173.475 154.448 172.789 154.306C172.104 154.164 171.445 153.636 171.39 152.938C171.186 156.838 174.106 160.564 173.293 164.384C172.99 164.219 172.687 164.054 172.385 163.888C173.099 160.057 169.685 156.349 170.398 152.518C170.492 152.011 170.695 151.471 171.149 151.225C171.602 150.979 172.319 151.258 172.301 151.774C172.272 152.6 173.164 153.217 173.99 153.209C174.816 153.202 175.567 152.759 176.273 152.33C176.525 152.177 176.456 151.799 176.351 151.524C175.57 149.475 174.543 147.519 173.299 145.713C172.459 144.492 171.446 143.285 170.049 142.79C168.652 142.294 166.807 142.8 166.293 144.19C165.691 145.817 163.417 145.927 161.746 145.458C160.076 144.988 158.202 144.256 156.711 145.144C155.465 145.887 155.048 147.47 154.815 148.902C154.414 151.358 154.229 153.85 154.263 156.338C154.33 156.718 154.815 156.841 155.2 156.831C157.232 156.778 159.118 155.175 159.499 153.179C160.047 153.809 160.242 154.662 160.419 155.477C161.032 158.301 161.646 161.125 162.259 163.948C162.448 164.818 162.227 166.154 161.352 165.996C160.955 162.916 160.368 159.861 159.594 156.853C158.13 157.186 156.667 157.519 155.204 157.852C154.755 157.954 154.253 158.048 153.86 157.808C153.318 157.477 153.282 156.717 153.309 156.082Z" fill="#170F2B"/>
<path fill-rule="evenodd" clip-rule="evenodd" d="M196.115 232.774C196.861 233.584 195.701 235.077 196.385 235.94C196.74 236.387 196.487 237.098 196.017 237.422C195.547 237.747 194.944 237.79 194.374 237.823C184.571 238.393 174.768 238.963 164.964 239.532C164.298 239.571 163.502 239.548 163.138 238.989C162.979 238.745 162.94 238.444 162.906 238.154C162.816 237.401 162.727 236.648 162.637 235.894C162.609 235.658 162.584 235.404 162.695 235.194C162.879 234.847 163.334 234.771 163.725 234.737C174.028 233.827 184.343 233.059 194.667 232.431C195.179 232.4 195.766 232.397 196.115 232.774ZM194.99 234.047C194.958 233.861 194.916 233.658 194.767 233.541C194.619 233.426 194.412 233.434 194.225 233.448C185.083 234.114 175.942 234.78 166.801 235.447C166.063 235.5 165.296 235.562 164.651 235.926C164.006 236.29 163.519 237.049 163.713 237.764C163.773 237.985 163.901 238.195 164.097 238.314C164.337 238.46 164.638 238.45 164.919 238.434C174.57 237.911 184.221 237.387 193.872 236.864C195.019 236.802 195.184 235.179 194.99 234.047Z" fill="#170F2B"/>
<path fill-rule="evenodd" clip-rule="evenodd" d="M203.849 223.996C205.585 228.562 206.138 233.478 206.677 238.332C207.929 249.611 209.182 260.89 210.434 272.168C209.502 272.245 209.073 271.049 208.957 270.121C207.06 254.946 206.449 239.574 203.24 224.621C203.443 224.413 203.646 224.205 203.849 223.996Z" fill="#170F2B"/>
<path fill-rule="evenodd" clip-rule="evenodd" d="M147.878 145.431C147.608 145.316 147.614 144.894 147.821 144.686C148.028 144.478 148.341 144.428 148.632 144.391C150.812 144.114 153.01 143.979 155.207 143.987C155.091 144.925 153.88 145.199 152.936 145.243C151.351 145.316 149.765 145.389 148.179 145.462C148.078 145.467 147.972 145.471 147.878 145.431L147.878 145.431Z" fill="#170F2B"/>
<path fill-rule="evenodd" clip-rule="evenodd" d="M160.177 260.13C159.996 256.773 159.815 253.416 159.634 250.059C159.146 241.023 158.644 231.895 156.129 223.203C155.808 222.094 155.441 220.967 154.729 220.057C152.948 217.778 149.652 217.516 146.76 217.516C135.609 217.517 124.459 218.577 113.508 220.678C112.396 220.892 111.239 221.137 110.351 221.841C108.94 222.959 108.568 224.925 108.437 226.721C108.198 229.999 108.435 233.312 109.138 236.523C108.736 236.456 108.333 236.389 107.931 236.321C106.455 233.248 105.783 229.793 105.998 226.391C106.092 224.914 106.364 223.409 107.125 222.14C109.018 218.982 113.186 218.224 116.847 217.832C126.136 216.837 135.46 216.167 144.796 215.823C148.553 215.685 152.8 215.791 155.378 218.527C156.676 219.904 157.333 221.753 157.848 223.573C159.64 229.895 160.134 236.501 160.619 243.054C161.094 249.456 161.568 255.859 162.042 262.261C162.153 263.766 162.263 265.294 161.959 266.772C160.967 271.588 155.838 274.517 150.956 275.1C146.074 275.682 141.159 274.566 136.243 274.485C129.631 274.374 122.981 276.132 116.461 275.034C114.583 274.718 112.586 274.053 111.553 272.452C110.837 271.342 110.708 269.966 110.599 268.649C109.825 259.363 109.052 250.077 108.279 240.79C108.227 240.169 108.689 239.242 109.167 239.643C110.02 248.588 110.872 257.533 111.725 266.478C111.84 267.689 111.966 268.934 112.528 270.013C113.345 271.578 114.994 272.573 116.703 273.017C118.413 273.46 120.204 273.424 121.97 273.401C129.44 273.303 136.914 273.489 144.37 273.958C146.863 274.115 149.383 274.302 151.847 273.884C154.31 273.466 156.754 272.368 158.283 270.392C160.46 267.578 160.369 263.683 160.177 260.13Z" fill="#170F2B"/>
<path fill-rule="evenodd" clip-rule="evenodd" d="M147.5 141.801C148.195 141.258 147.611 140.147 147.748 139.276C147.942 138.044 149.475 137.62 150.714 137.477C158.673 136.557 166.689 136.122 174.701 136.175C175.367 136.18 176.155 136.254 176.491 136.83C176.894 137.522 176.519 138.729 177.282 138.971C177.64 139.085 178.099 138.874 178.371 139.134C178.82 139.564 177.983 140.145 177.365 140.2C167.988 141.042 158.592 141.658 149.186 142.047C148.611 142.071 148.001 142.086 147.5 141.801M175.507 137.918C175.288 137.367 174.555 137.286 173.963 137.295C166.409 137.41 158.859 137.784 151.331 138.415C150.448 138.489 149.406 138.673 149.038 139.478C148.862 139.937 149.199 140.464 149.644 140.671C150.088 140.879 150.603 140.853 151.093 140.821C158.613 140.344 166.133 139.867 173.654 139.39C174.117 139.361 174.599 139.326 174.998 139.089C175.397 138.853 175.679 138.349 175.507 137.918Z" fill="#170F2B"/>
<path fill-rule="evenodd" clip-rule="evenodd" d="M185.645 248.273C186.805 249.194 186.308 251.213 187.317 252.298C187.787 252.802 188.489 252.999 189.15 253.192C189.575 253.317 190.101 253.629 189.966 254.05C189.827 254.482 189.198 254.413 188.776 254.247C187.398 253.707 185.844 252.81 185.768 251.331C185.712 250.252 185.391 249.188 184.842 248.258C184.997 247.996 185.406 248.083 185.645 248.273V248.273Z" fill="#170F2B"/>
<path fill-rule="evenodd" clip-rule="evenodd" d="M191.13 263.56C190.752 258.695 190.374 253.83 189.997 248.965C189.941 248.25 189.878 247.509 189.524 246.885C189.17 246.262 188.436 245.792 187.743 245.977C184.61 246.818 181.355 247.208 178.111 247.131C175.275 247.064 172.373 246.65 169.644 247.426C169.695 248.777 169.746 250.129 169.797 251.48C169.811 251.874 169.834 252.293 170.058 252.618C170.687 253.528 172.25 252.834 172.605 251.786C172.959 250.738 172.639 249.591 172.7 248.486C172.711 248.29 172.75 248.067 172.916 247.964C173.27 247.744 173.611 248.269 173.701 248.676C173.962 249.842 174.221 251.062 173.914 252.216C173.607 253.371 172.536 254.417 171.352 254.264C170.124 254.106 169.622 255.784 169.592 257.021C169.533 259.491 169.473 261.96 169.414 264.43C169.395 265.207 169.675 266.281 170.448 266.193C172.442 265.967 174.436 265.741 176.431 265.515C176.913 265.46 177.431 265.412 177.855 265.648C178.279 265.884 178.503 266.526 178.156 266.864C175.813 267.07 173.471 267.275 171.128 267.48C170.444 267.54 169.734 267.597 169.089 267.362C168.443 267.128 167.881 266.514 167.94 265.83C168.516 259.112 168.645 252.355 168.325 245.62C168.258 244.187 170.003 243.46 171.413 243.196C175.888 242.357 180.452 241.993 185.003 242.112C186.529 242.152 188.192 242.303 189.299 243.355C190.425 244.425 190.646 246.112 190.802 247.658C191.384 253.453 191.966 259.249 192.548 265.044C192.58 265.356 192.587 265.728 192.337 265.918C192.188 266.032 191.988 266.044 191.801 266.052C189.858 266.132 187.916 266.213 185.973 266.294C184.944 266.337 183.837 266.359 182.98 265.787C182.392 265.395 182.004 264.772 181.662 264.154C180.843 262.67 180.189 261.096 179.715 259.468C178.972 261.328 178.502 263.297 178.324 265.292C177.385 265.394 177.21 263.985 177.429 263.067C177.879 261.171 178.329 259.276 178.78 257.38C178.848 257.092 178.958 256.757 179.24 256.668C179.657 256.537 179.976 257.035 180.129 257.445C180.763 259.149 181.397 260.854 182.032 262.559C182.578 264.026 184.153 264.908 185.708 265.089C187.263 265.269 188.821 264.878 190.338 264.49C190.638 264.413 190.978 264.302 191.095 264.015C191.153 263.873 191.142 263.713 191.13 263.56ZM169.998 245.748C171.405 245.766 172.812 245.784 174.218 245.802C175.275 245.816 176.332 245.83 177.389 245.81C181.204 245.738 185.01 245.226 188.708 244.288C187.883 243.441 186.56 243.394 185.378 243.415C181.147 243.49 176.92 243.737 172.709 244.152C171.582 244.263 170.182 244.63 169.998 245.748L169.998 245.748Z" fill="#170F2B"/>
<path fill-rule="evenodd" clip-rule="evenodd" d="M163.701 242.105C163.621 241.665 164.191 241.425 164.633 241.356C169.736 240.565 174.908 240.216 180.071 240.312C180.145 240.314 180.221 240.316 180.29 240.344C180.532 240.446 180.521 240.827 180.328 241.006C180.136 241.184 179.853 241.215 179.591 241.234C174.674 241.603 169.686 241.413 164.869 242.465C164.421 242.563 163.783 242.555 163.701 242.105L163.701 242.105Z" fill="#170F2B"/>
<path fill-rule="evenodd" clip-rule="evenodd" d="M277.828 231.539C278.109 230.874 278.421 230.172 279.019 229.768C279.523 229.427 280.156 229.352 280.761 229.286C282.558 229.091 284.355 228.896 286.151 228.701C287.04 228.604 288.187 228.23 288.153 227.337C288.044 224.452 288.267 221.13 290.558 219.375C292.655 217.769 295.793 218.209 297.944 219.741C300.095 221.273 301.457 223.659 302.633 226.024C303.153 227.071 304.578 227.262 305.73 227.06C306.882 226.858 308.049 226.405 309.186 226.681C310.935 227.106 311.82 229.017 312.421 230.714C315.438 239.23 317.486 248.109 321.239 256.328C322.643 259.402 322.199 263.238 320.13 265.909C319.874 263.788 320.23 261.596 321.143 259.664C321.573 258.754 320.141 258.155 319.135 258.158C308.875 258.184 298.571 258.213 288.424 259.736C288.114 259.782 287.785 259.839 287.554 260.051C287.329 260.256 287.242 260.568 287.164 260.862C286.85 262.057 286.535 263.252 286.221 264.447C286.023 265.196 286.147 266.358 286.918 266.28C296.959 265.263 307.055 264.778 317.148 264.828C318.21 264.833 319.659 265.255 319.521 266.307C308.769 266.434 297.977 266.564 287.342 268.146C285.648 268.399 284.479 266.301 284.671 264.6C284.863 262.899 285.839 261.372 286.114 259.682C286.351 258.226 286.054 256.74 285.735 255.299C285.228 253.009 284.661 250.731 284.035 248.47C283.425 246.264 282.759 244.073 282.092 241.883C281.085 238.57 280.077 235.256 279.069 231.943C277.683 233.973 277.066 236.514 277.366 238.953C277.575 240.651 278.204 242.264 278.676 243.908C279.35 246.259 279.704 248.689 280.057 251.109C280.75 255.877 281.444 260.644 282.138 265.412C282.24 266.114 282.038 267.147 281.337 267.043C278.219 257.397 279.075 246.732 275.395 237.286C276.206 235.37 277.017 233.454 277.828 231.539ZM301.052 233.289C302.069 232.723 302.595 231.404 302.246 230.295C301.898 229.185 300.712 228.403 299.555 228.521C296.718 228.808 293.881 229.096 291.044 229.383C290.782 229.41 290.489 229.453 290.332 229.664C290.207 229.83 290.205 230.055 290.217 230.263C290.292 231.559 290.742 232.831 291.498 233.887C292.086 234.708 292.898 235.689 292.44 236.588C291.867 237.711 289.983 237.082 289.515 235.911C289.048 234.74 289.381 233.418 289.294 232.16C289.207 230.903 288.303 229.455 287.06 229.664C285.02 230.007 282.981 230.351 280.942 230.694C280.65 230.743 280.268 230.924 280.353 231.208C282.836 239.427 285.319 247.645 287.802 255.864C288.112 256.888 288.809 258.156 289.851 257.913C299.415 255.679 309.499 257.791 319.209 256.324C316.3 247.202 313.291 238.113 310.181 229.058C310.089 228.791 309.985 228.507 309.757 228.34C309.504 228.156 309.165 228.161 308.852 228.174C307.395 228.236 305.939 228.298 304.482 228.36C303.906 228.384 303.12 228.659 303.247 229.221C303.642 230.986 304.038 232.751 304.434 234.515C304.502 234.819 304.569 235.144 304.456 235.434C304.148 236.222 302.986 236.024 302.212 235.682C301.703 235.458 301.169 235.213 300.854 234.755C300.54 234.297 300.567 233.559 301.052 233.289ZM297.298 220.486C296.181 219.666 294.712 219.075 293.423 219.583C292.973 219.76 292.583 220.057 292.2 220.351C291.517 220.874 290.813 221.421 290.41 222.18C290.035 222.888 289.958 223.709 289.888 224.507C289.827 225.203 289.765 225.9 289.704 226.597C289.666 227.029 289.651 227.526 289.964 227.826C290.265 228.113 290.736 228.093 291.151 228.053C294.118 227.771 297.085 227.489 300.052 227.207C300.475 227.166 300.992 227.051 301.103 226.641C301.147 226.48 301.112 226.308 301.072 226.145C300.525 223.896 299.164 221.855 297.298 220.486ZM296.187 227.857C295.888 227.942 296.22 228.502 296.437 228.28C296.715 228.166 296.407 227.645 296.173 227.833L296.187 227.857Z" fill="#FFA500"/>
<path fill-rule="evenodd" clip-rule="evenodd" d="M202.111 161.154C202.06 160.981 202.163 160.799 202.285 160.665C202.883 160.007 203.883 159.958 204.773 159.956C210.164 159.943 215.555 159.931 220.947 159.918C221.326 159.917 221.733 159.925 222.043 160.144C222.352 160.363 222.473 160.88 222.176 161.116C222.018 161.241 221.799 161.249 221.597 161.251C215.334 161.32 209.07 161.39 202.807 161.46C202.534 161.463 202.189 161.416 202.111 161.154Z" fill="#170F2B"/>
<path fill-rule="evenodd" clip-rule="evenodd" d="M204.111 166.721C203.786 166.534 203.831 166.01 204.104 165.753C204.377 165.497 204.775 165.437 205.147 165.392C207.379 165.123 209.623 164.975 211.866 164.827C213.102 164.746 214.338 164.664 215.574 164.583C217.181 164.477 218.787 164.371 220.394 164.265C220.904 164.232 221.474 164.217 221.859 164.555C222.243 164.892 222.149 165.704 221.639 165.735C215.968 166.087 210.297 166.438 204.627 166.789C204.451 166.8 204.263 166.808 204.111 166.721L204.111 166.721Z" fill="#170F2B"/>
<path fill-rule="evenodd" clip-rule="evenodd" d="M234.507 174.052C234.935 173.238 235.4 172.384 236.188 171.91C236.977 171.435 238.186 171.533 238.61 172.349C239.062 173.218 238.39 174.265 237.601 174.845C236.812 175.425 235.842 175.834 235.329 176.668C238.1 178.494 240.87 180.32 243.641 182.145C245.811 183.575 248.266 185.618 247.822 188.178C247.562 189.679 246.289 190.847 244.872 191.407C243.455 191.967 241.897 192.025 240.374 192.069C230.137 192.364 219.891 192.312 209.658 191.913C208.948 191.886 208.156 191.82 207.683 191.289C207.317 190.879 207.241 190.293 207.182 189.745C206.593 184.299 206.004 178.852 205.415 173.406C205.393 173.204 205.373 172.994 205.445 172.805C205.748 172.01 206.937 172.5 207.602 173.031C212.313 176.791 219.844 176.349 224.083 172.064C225.107 171.029 226.85 171.163 228.166 171.787C229.482 172.411 230.583 173.427 231.903 174.042C231.762 173.279 232.435 172.473 233.211 172.477C233.987 172.48 234.654 173.29 234.507 174.052ZM235.086 177.561C234.75 176.325 232.923 176.066 231.915 176.857C230.908 177.648 230.581 179.026 230.494 180.304C230.461 180.781 229.677 180.828 229.408 180.433C229.14 180.038 229.249 179.505 229.398 179.051C229.791 177.853 230.397 176.725 231.179 175.736C231.566 175.246 230.999 174.583 230.488 174.224C228.686 172.957 226.133 171.707 224.48 173.163C219.95 177.153 212.723 177.685 207.658 174.401C207.718 178.489 208.019 182.574 208.559 186.627C208.614 187.035 208.684 187.472 208.966 187.772C209.339 188.169 209.95 188.197 210.495 188.198C219.295 188.209 228.095 188.22 236.895 188.231C237.751 188.232 238.915 187.926 238.849 187.073C238.693 185.086 239.573 183.046 241.124 181.796C239.904 180.909 238.683 180.023 237.463 179.136C237.091 178.866 236.701 178.588 236.247 178.51C234.878 178.275 233.963 179.845 233.479 181.147C232.737 179.82 233.602 177.89 235.086 177.561ZM212.087 191.127C221.251 191.199 230.415 191.184 239.579 191.081C242.18 191.052 245.217 190.788 246.628 188.602C233.974 189.158 221.302 189.296 208.639 189.015C208.482 190.535 210.559 191.116 212.087 191.127ZM243.448 182.959C243.175 182.786 242.893 182.61 242.575 182.555C241.616 182.391 240.859 183.349 240.442 184.229C240.201 184.737 239.992 185.261 239.815 185.796C239.681 186.203 239.565 186.636 239.649 187.057C239.734 187.477 240.078 187.875 240.507 187.88C242.066 187.898 243.624 187.881 245.182 187.83C245.549 187.818 245.949 187.792 246.224 187.548C246.547 187.261 246.587 186.766 246.506 186.342C246.212 184.803 244.771 183.797 243.448 182.959ZM237.944 173.011C237.927 172.537 237.293 172.296 236.855 172.479C236.417 172.662 236.147 173.097 235.907 173.507C235.616 174.002 235.325 174.496 235.035 174.991C234.882 175.251 234.799 175.692 235.093 175.757C235.867 175.114 236.64 174.471 237.414 173.828C237.673 173.613 237.956 173.348 237.944 173.011ZM232.93 173.785C232.798 174.425 233.127 175.132 233.7 175.444C233.899 174.785 233.782 174.038 233.392 173.471C233.368 173.311 233.151 173.218 233.018 173.312C232.916 173.441 232.88 173.619 232.923 173.778L232.93 173.785Z" fill="#170F2B"/>
<path fill-rule="evenodd" clip-rule="evenodd" d="M201.423 154.915C201.19 153.789 200.958 152.663 200.725 151.537C200.635 151.099 200.551 150.614 200.781 150.23C201.094 149.708 201.81 149.638 202.419 149.627C217.377 149.367 232.34 149.424 247.295 149.798C248.315 149.824 249.153 150.705 249.463 151.677C249.774 152.649 249.672 153.699 249.566 154.714C249.51 155.263 249.419 155.874 248.982 156.21C248.623 156.485 248.134 156.492 247.682 156.487C232.661 156.323 217.64 156.159 202.619 155.995C202.371 155.992 202.11 155.986 201.9 155.854C201.594 155.661 201.496 155.269 201.423 154.915ZM203.489 150.615C202.383 150.607 201.599 151.92 201.875 152.991C202.152 154.062 203.186 154.799 204.261 155.059C205.335 155.319 206.46 155.194 207.561 155.091C221.126 153.823 234.844 156.246 248.399 154.878C248.47 154.054 248.538 153.201 248.272 152.417C248.007 151.633 247.314 150.931 246.487 150.925C232.154 150.822 217.821 150.718 203.489 150.615Z" fill="#170F2B"/>
<path fill-rule="evenodd" clip-rule="evenodd" d="M111.228 187.526C110.728 188.475 110.037 189.439 109.002 189.721C107.031 190.259 105.401 188.07 104.863 186.099C104.023 183.021 104.235 179.667 105.457 176.72C106.11 175.143 105.565 173.279 104.541 171.914C102.608 169.34 99.0037 168.213 95.9063 169.088C92.809 169.964 90.3648 172.719 89.7168 175.872C89.6154 176.366 89.687 177.059 90.1861 177.129C92.6754 177.478 93.8183 180.399 94.1973 182.884C94.4866 184.781 94.6124 186.769 93.9688 188.578C93.3252 190.386 91.75 191.974 89.8362 192.119C88.1188 190.963 86.8258 189.19 86.2491 187.202C85.1764 183.503 86.5699 179.583 88.0085 176.011C88.8865 173.831 89.8291 171.599 91.4969 169.943C95.0621 166.404 101.719 166.824 104.811 170.784C106.001 172.307 106.683 174.198 108.001 175.612C108.995 176.677 110.308 177.422 111.215 178.563C113.184 181.039 112.705 184.728 111.228 187.526ZM87.3398 180.689C86.4371 183.177 86.6886 186.057 88.0087 188.351C88.2255 188.728 88.4835 189.103 88.8625 189.316C89.2414 189.529 89.7697 189.533 90.0693 189.217C90.967 188.274 91.0793 186.846 91.0763 185.544C91.0728 184.003 90.9778 182.463 90.792 180.934C90.7159 180.308 90.5862 179.616 90.08 179.24C89.5738 178.864 88.6234 179.178 88.7029 179.804C88.9343 181.624 89.1656 183.444 89.3969 185.264C89.4495 185.678 89.4959 186.126 89.2884 186.488C89.0809 186.851 88.5078 187.019 88.2451 186.695C87.5643 185.306 87.359 183.689 87.6711 182.174C87.7833 181.629 87.8607 180.884 87.3398 180.689M108.178 187.907C108.408 187.728 108.516 187.436 108.602 187.157C109.276 184.966 109.284 182.574 108.622 180.378C108.37 179.543 107.689 178.567 106.863 178.847C106.386 179.008 106.144 179.531 105.992 180.011C105.302 182.193 105.394 184.614 106.247 186.738C106.411 187.145 106.613 187.557 106.96 187.826C107.306 188.094 107.833 188.177 108.178 187.907ZM91.9761 180.031C92.5776 183.079 92.4497 186.269 91.606 189.259C91.5284 189.534 91.8405 189.749 92.102 189.865C93.3675 186.796 93.5277 183.284 92.547 180.112C92.3844 179.996 92.1645 179.965 91.9761 180.031ZM109.534 179.208C109.347 179.506 109.16 179.805 108.973 180.103C109.589 179.999 109.871 180.839 109.904 181.464C109.98 182.906 110.057 184.349 110.133 185.792C110.707 185.576 110.811 184.823 110.821 184.21C110.846 182.83 110.87 181.449 110.894 180.069C110.687 180.045 110.48 180.021 110.274 179.996C110.252 179.605 109.923 179.254 109.534 179.208Z" fill="#170F2B"/>
<path fill-rule="evenodd" clip-rule="evenodd" d="M177.202 181.826C173.09 181.63 168.96 181.808 164.88 182.358C164.519 182.407 164.114 182.448 163.824 182.228C163.534 182.007 163.566 181.423 163.928 181.383C168.008 180.935 172.106 180.646 176.209 180.519C176.656 180.505 177.155 180.513 177.473 180.826C177.791 181.139 177.648 181.847 177.202 181.826Z" fill="#170F2B"/>
<path fill-rule="evenodd" clip-rule="evenodd" d="M81.6766 165.406C82.8441 165.296 84.0115 165.186 85.1789 165.077C85.767 165.021 86.3551 164.966 86.9432 164.911C90.684 164.559 94.4248 164.208 98.169 163.895C98.316 163.883 98.4696 163.872 98.6059 163.929C99.011 164.097 98.9487 164.752 98.5956 165.012C98.2425 165.272 97.765 165.257 97.3265 165.243C91.8124 165.059 86.3171 166.716 80.8285 166.156C80.4718 166.119 80.0053 165.936 80.0682 165.583C80.6023 165.507 81.1396 165.456 81.6766 165.406Z" fill="#170F2B"/>
<path fill-rule="evenodd" clip-rule="evenodd" d="M207.419 286.58C207.235 284.974 207.104 283.227 206.024 282.024C205.196 281.101 205.624 279.386 206.79 278.961C207.955 278.536 209.387 279.574 209.346 280.813C209.332 281.239 209.177 281.645 209.057 282.053C208.234 284.842 208.998 287.843 210.005 290.571C211.025 293.334 212.585 296.275 215.387 297.183C218.628 298.234 222.214 295.909 223.65 292.819C225.087 289.73 224.868 286.144 224.367 282.774C224.316 282.436 224.226 282.046 223.915 281.902C222.655 281.32 222.463 279.275 223.594 278.47C224.725 277.664 226.595 278.513 226.734 279.894C226.781 280.363 226.661 280.83 226.572 281.292C225.953 284.501 226.772 287.865 226.093 291.062C225.668 293.064 224.649 294.936 223.199 296.38C221.661 297.91 219.584 298.966 217.415 299.003C214.494 299.052 211.761 297.24 210.11 294.83C208.459 292.419 207.751 289.483 207.419 286.58Z" fill="#170F2B"/>
<path fill-rule="evenodd" clip-rule="evenodd" d="M122.227 154.74C122.309 155.839 122.386 156.973 122.043 158.021C121.701 159.069 120.83 160.024 119.731 160.119C114.066 160.606 108.4 161.093 102.724 161.429C94.9848 161.887 87.2319 162.063 79.481 162.24C79.2045 162.246 78.9085 162.247 78.6777 162.095C78.3314 161.866 78.2666 161.393 78.2346 160.98C78.1508 159.896 78.067 158.813 77.9832 157.729C77.9577 157.4 77.9384 157.044 78.1159 156.765C78.376 156.357 78.9329 156.286 79.4162 156.258C93.6718 155.413 107.948 154.907 122.227 154.74ZM119.842 158.54C120.753 158.479 120.937 157.046 120.27 156.424C119.602 155.802 118.588 155.788 117.675 155.81C105.943 156.102 94.2063 156.394 82.4975 157.19C81.6542 157.247 80.777 157.318 80.0481 157.745C79.3192 158.173 78.7929 159.073 79.0714 159.871C79.467 161.004 80.9964 161.129 82.1944 161.049C94.7437 160.213 107.293 159.376 119.842 158.54Z" fill="#170F2B"/>
<path fill-rule="evenodd" clip-rule="evenodd" d="M107.66 182.119C107.671 182.417 107.682 182.715 107.693 183.013C107.717 183.633 107.74 184.258 107.65 184.872C106.873 184.79 106.631 183.789 106.586 183.008C106.564 182.637 106.557 182.222 106.806 181.945C107.055 181.668 107.646 181.747 107.66 182.119L107.66 182.119Z" fill="#170F2B"/>
<path fill-rule="evenodd" clip-rule="evenodd" d="M163.676 184.659C164.439 183.954 165.599 183.976 166.638 184.006C169.923 184.099 173.217 183.845 176.449 183.25C176.83 183.18 177.035 183.772 176.797 184.078C176.56 184.384 176.131 184.449 175.746 184.488C172.103 184.858 168.446 185.078 164.785 185.146C164.349 185.154 163.796 185.078 163.676 184.659Z" fill="#170F2B"/>
<path fill-rule="evenodd" clip-rule="evenodd" d="M286.304 196.974C285.944 198.192 284.748 198.946 283.606 199.504C277.894 202.298 271.179 202.982 265.021 201.397C262.953 200.865 260.597 199.633 260.508 197.5C260.443 195.931 261.695 194.616 263.021 193.776C265.055 192.486 267.427 191.835 269.791 191.375C274.352 190.489 279.296 190.306 283.425 192.437C285.155 193.33 286.856 195.107 286.304 196.974ZM261.918 197.262C261.922 198.986 263.845 199.995 265.512 200.432C271.301 201.95 277.633 201.295 282.988 198.624C283.848 198.195 284.755 197.63 285.028 196.709C285.394 195.472 284.436 194.226 283.373 193.496C280.173 191.297 275.94 191.598 272.079 192.011C268.972 192.344 265.662 192.778 263.293 194.816C262.562 195.446 261.916 196.297 261.918 197.262L261.918 197.262Z" fill="#170F2B"/>
<path fill-rule="evenodd" clip-rule="evenodd" d="M118.241 96.028C118.047 94.9201 118.811 93.8191 119.795 93.275C120.78 92.7309 121.94 92.6259 123.063 92.5598C133.075 91.9707 143.071 93.5787 153.087 94.1072C154.376 94.1753 155.735 94.2465 156.819 94.9468C157.904 95.6471 158.54 97.2187 157.79 98.2692C157.427 98.7773 156.827 99.0595 156.232 99.2476C154.515 99.79 152.672 99.718 150.873 99.6407C141.51 99.2381 132.147 98.8356 122.784 98.4331C120.926 98.3532 118.564 97.8605 118.241 96.028M119.527 94.4225C118.997 95.1681 119.44 96.2805 120.205 96.782C120.969 97.2836 121.932 97.3401 122.845 97.3812C132.768 97.8278 142.691 98.2743 152.614 98.7209C153.581 98.7644 154.652 98.774 155.385 98.1414C156.117 97.5089 156.02 96.0004 155.065 95.8484C144.03 94.094 132.833 93.3654 121.665 93.6751C120.881 93.6968 119.98 93.7828 119.527 94.4225" fill="#170F2B"/>
<path fill-rule="evenodd" clip-rule="evenodd" d="M228.029 86.4132C229.552 83.2397 232.022 79.9684 235.531 79.6979C237.869 79.5176 240.35 79.9266 242.2 81.367C245.556 83.9794 245.79 89.0453 244.591 93.1257C243.177 97.9351 240.023 102.39 235.498 104.547C234.418 105.061 233.245 105.446 232.05 105.399C228.875 105.274 226.563 102.155 225.88 99.0525C224.943 94.8001 226.145 90.3389 228.029 86.4132M231.977 104.237C234.324 104.557 236.535 103.062 238.19 101.368C241.293 98.194 243.376 94.0379 244.063 89.6524C244.261 88.3885 244.343 87.0772 243.999 85.845C243.323 83.4215 241.025 81.6701 238.56 81.1662C236.189 80.6816 233.584 81.2598 231.757 82.8458C230.879 83.608 230.196 84.5707 229.601 85.5696C227.658 88.8277 226.554 92.619 226.689 96.4099C226.75 98.1224 227.075 99.8632 227.942 101.341C228.809 102.819 230.279 104.006 231.977 104.237Z" fill="#FFA500"/>
<path fill-rule="evenodd" clip-rule="evenodd" d="M151.073 221.101C151.385 221.085 151.719 221.074 151.983 221.241C152.31 221.447 152.429 221.857 152.523 222.232C152.729 223.052 152.936 223.905 152.77 224.734C152.605 225.563 151.95 226.36 151.106 226.397C148.951 226.491 146.796 226.585 144.642 226.679C143.797 226.716 142.807 226.837 142.387 227.571C142.102 228.068 142.187 228.686 142.28 229.252C142.544 230.855 143.291 232.881 144.915 232.822C145.994 232.783 146.957 233.603 147.422 234.579C147.887 235.554 147.956 236.664 148.018 237.743C148.076 238.759 147.817 240.147 146.8 240.172C145.98 240.193 145.754 241.301 145.78 242.121C145.961 247.824 146.142 253.526 146.323 259.229C146.352 260.148 145.175 260.535 144.26 260.627C136.595 261.401 128.85 261.38 121.189 260.566C120.914 260.537 120.563 260.429 120.557 260.153C120.416 253.709 120.274 247.265 120.132 240.822C120.124 240.446 119.939 239.927 119.577 240.026C118.435 240.338 117.287 239.279 117.051 238.119C116.815 236.959 117.22 235.775 117.62 234.661C117.805 234.146 118.012 233.6 118.454 233.277C119.397 232.588 121.141 233.079 121.564 231.99C121.634 231.81 121.647 231.612 121.641 231.419C121.582 229.737 120.015 228.408 118.364 228.076C116.713 227.743 115.012 228.181 113.405 228.682C113.036 227.292 112.942 225.83 113.128 224.404C113.172 224.068 113.241 223.714 113.467 223.461C113.789 223.1 114.326 223.05 114.81 223.024C126.897 222.383 138.985 221.742 151.073 221.101ZM118.844 234.157C118.612 234.426 118.56 234.803 118.519 235.156C118.41 236.078 118.3 237 118.191 237.922C118.168 238.116 118.147 238.321 118.225 238.5C118.392 238.883 118.898 238.949 119.316 238.96C121.535 239.015 123.754 239.07 125.973 239.125C126.348 239.134 126.74 239.14 127.073 238.967C127.607 238.69 127.827 237.938 127.525 237.417C127.797 237.389 128.068 237.361 128.34 237.333C128.22 238.137 129.039 238.81 129.843 238.929C130.648 239.047 131.456 238.801 132.266 238.737C133.965 238.603 135.662 239.269 137.354 239.069C137.533 239.048 137.723 239.011 137.847 238.882C138.01 238.713 138.007 238.45 137.994 238.216C137.93 237.092 137.865 235.969 137.801 234.845C137.781 234.491 137.751 234.111 137.523 233.839C137.199 233.451 136.617 233.438 136.112 233.458C133.669 233.553 131.226 233.647 128.783 233.742C128.612 233.748 128.423 233.763 128.305 233.886C128.172 234.024 128.182 234.24 128.2 234.431C128.282 235.305 128.364 236.18 128.446 237.054C128.122 237.085 127.804 237.18 127.515 237.331C127.443 236.642 127.371 235.953 127.299 235.264C127.233 234.637 126.987 233.832 126.356 233.823C124.339 233.796 122.323 233.77 120.307 233.743C119.783 233.736 119.186 233.759 118.844 234.157ZM130.461 240.934C130.427 240.47 130.226 239.857 129.764 239.906C126.889 240.215 123.979 240.198 121.108 239.853C121.179 246.11 121.295 252.366 121.457 258.62C121.478 259.425 122.494 259.747 123.295 259.829C125.675 260.073 128.071 260.157 130.462 260.078C130.658 260.072 130.87 260.058 131.019 259.931C131.216 259.764 131.228 259.471 131.225 259.214C131.157 253.115 130.902 247.018 130.461 240.934ZM144.839 240.59C144.761 240.455 144.581 240.427 144.426 240.414C141.953 240.204 139.466 240.145 136.986 240.238C136.761 240.246 136.521 240.261 136.343 240.399C136.072 240.608 136.056 241.003 136.063 241.344C136.2 247.589 136.337 253.833 136.473 260.077C139.204 260.341 141.984 260.083 144.62 259.321C144.784 259.274 144.958 259.218 145.064 259.084C145.178 258.94 145.186 258.741 145.188 258.557C145.24 254.539 145.136 250.522 145.032 246.505C144.984 244.613 144.935 242.721 144.886 240.829C144.884 240.747 144.881 240.661 144.839 240.59ZM114.171 224.761C113.697 225.506 114.207 226.559 114.986 226.975C115.765 227.392 116.699 227.351 117.582 227.3C122.919 226.991 128.256 226.682 133.594 226.372C138.684 226.077 143.774 225.782 148.856 225.369C149.6 225.308 150.382 225.232 150.997 224.808C151.612 224.385 151.969 223.489 151.557 222.867C151.143 222.242 150.253 222.214 149.505 222.252C138.415 222.824 127.324 223.396 116.234 223.968C115.468 224.008 114.583 224.113 114.171 224.761M135.504 259.931C135.129 253.836 135.055 247.722 135.282 241.619C135.295 241.269 135.306 240.904 135.167 240.583C134.758 239.643 133.444 239.646 132.432 239.802C131.969 239.874 131.378 240.095 131.412 240.562C131.846 246.4 132.281 252.247 132.183 258.1C132.17 258.875 132.614 259.64 133.293 260.015C133.971 260.389 134.856 260.356 135.504 259.931ZM146.958 237.429C146.827 236.623 146.689 235.8 146.296 235.085C145.903 234.369 145.2 233.77 144.385 233.729C142.836 233.652 141.287 233.575 139.739 233.498C139.336 233.478 138.779 233.599 138.798 234.003C138.857 235.228 138.916 236.454 138.975 237.679C139.001 238.214 139.1 238.86 139.596 239.063C139.756 239.129 139.933 239.133 140.106 239.137C142.125 239.184 144.144 239.23 146.163 239.276C146.549 239.285 146.872 238.946 146.977 238.575C147.082 238.204 147.021 237.809 146.958 237.429ZM137.182 231.389C136.98 230.538 136.769 229.667 136.286 228.939C135.802 228.21 134.981 227.641 134.108 227.705C132.764 227.804 131.42 227.902 130.075 228.001C129.237 228.063 128.289 228.183 127.798 228.865C127.204 229.689 127.611 230.839 127.451 231.842C127.395 232.194 127.67 232.532 127.999 232.669C128.329 232.805 128.699 232.789 129.056 232.771C131.462 232.647 133.869 232.523 136.276 232.4C136.629 232.381 137.053 232.317 137.194 231.992C137.276 231.804 137.229 231.589 137.182 231.389ZM141.4 229.848C140.942 229.221 140.953 228.291 141.426 227.675C140.583 227.152 139.401 227.249 138.654 227.903C137.907 228.557 137.656 229.716 138.064 230.621C138.208 230.94 138.125 231.318 138.227 231.653C138.371 232.129 138.869 232.428 139.362 232.489C139.856 232.55 140.351 232.421 140.831 232.292C141.461 232.124 142.228 231.787 142.222 231.134C142.217 230.614 141.707 230.268 141.4 229.848ZM126.359 232.081C126.639 231.167 126.263 230.124 125.545 229.493C124.828 228.861 123.823 228.615 122.87 228.701C122.488 228.735 122.089 228.83 121.812 229.096C121.535 229.362 121.436 229.842 121.686 230.134C121.87 230.349 122.185 230.412 122.378 230.62C122.673 230.938 122.573 231.446 122.708 231.857C123.013 232.787 124.275 232.874 125.249 232.786C125.583 232.755 125.951 232.708 126.17 232.455C126.263 232.349 126.318 232.216 126.359 232.081ZM126.517 229.006C126.743 228.787 126.784 228.403 126.609 228.142C126.22 228.026 125.785 228.257 125.581 228.608C125.733 228.956 126.16 229.157 126.526 229.053M137.617 228.035C137.673 227.882 137.64 227.7 137.533 227.577C137.164 227.46 136.734 227.565 136.46 227.838C136.742 228.158 137.255 228.245 137.626 228.034L137.617 228.035Z" fill="#170F2B"/>
<path fill-rule="evenodd" clip-rule="evenodd" d="M286.41 202.123C274.578 206.75 262.745 211.377 250.913 216.004C245.823 217.994 239.934 220.982 239.388 226.42C246.303 221.1 254.844 217.926 263.554 217.438C257.537 225.019 249.939 231.34 241.388 235.877C233.71 239.952 223.989 244.297 223.33 252.965C231.577 243.145 244.255 237.2 257.078 237.141C248.874 249.156 235.72 257.679 221.401 260.255C221.892 263.947 222.384 267.64 222.875 271.332C227.741 271.16 232.635 271.856 237.26 273.377C240.553 287.525 243.846 301.673 247.139 315.821C247.949 319.302 248.663 323.303 246.531 326.172C244.416 329.019 240.422 329.509 236.885 329.76C222.944 330.751 209.003 331.742 195.062 332.733C193.393 325.171 191.723 317.609 190.054 310.047C166.539 312.231 143.023 314.414 119.508 316.598C114.556 317.057 109.318 317.47 104.837 315.312C88.5834 307.487 68.8753 322.633 51.7082 317.092C66.7913 316.808 81.8279 314.177 96.1115 309.323C101.292 307.563 107.494 302.741 104.787 297.986C91.5411 307.229 74.5451 310.918 58.6589 308C59.5916 292.573 58.9918 277.053 56.871 261.743C68.1746 260.126 79.3144 257.366 90.0656 253.519C93.0561 252.449 96.1327 251.218 98.2623 248.861C100.392 246.505 101.253 242.698 99.3818 240.131C83.0295 248.844 64.149 252.744 45.6826 251.223C46.6462 272.117 47.6098 293.012 48.5734 313.907C45.8438 293.027 44.3963 271.98 44.2416 250.923C53.7473 250.08 63.253 249.237 72.7587 248.394C71.2302 241.609 69.6921 234.669 70.4773 227.758C71.2625 220.847 74.8192 213.849 81.0711 210.801C76.3413 200.713 69.1931 191.769 60.3961 184.932C50.0833 176.916 36.8244 170.874 32.115 158.691C29.0011 150.635 30.5285 141.266 34.8401 133.783C39.1517 126.3 45.9838 120.536 53.4095 116.127C43.1861 113.499 35.4424 103.308 35.6495 92.7547C35.8567 82.201 43.9945 72.3219 54.3131 70.0973C49.4481 64.2998 41.7875 61.6426 36.1919 56.5466C29.6735 50.6102 26.398 41.034 28.7724 32.5432C31.1468 24.0525 39.5068 17.3721 48.3152 17.7485C55.5506 18.0577 61.9179 22.6339 66.9684 27.8242C74.8012 35.8737 80.6265 45.862 83.776 56.6429C85.8752 63.8287 93.5687 67.4844 100.066 71.2031C106.563 74.9219 113.31 81.3996 111.48 88.6585C109.06 78.7255 100.933 70.3993 91.0616 67.7392C85.9179 66.353 84.0433 60.232 82.3887 55.1683C79.169 45.3145 73.6727 36.2122 66.4513 28.7748C61.0243 23.1855 53.9288 18.3081 46.1496 18.728C38.1413 19.1603 31.0817 25.6746 29.2509 33.4828C27.42 41.2909 30.4897 49.8466 36.3331 55.3398C42.2849 60.9349 50.7996 63.6756 55.5981 70.2866C45.191 72.4016 36.9632 82.4169 36.9085 93.0366C36.8538 103.656 44.9781 113.756 55.3629 115.978C48.0445 120.262 41.1966 125.704 36.6814 132.882C32.1662 140.06 30.2307 149.17 32.9323 157.208C39.1811 175.8 65.2264 180.237 74.4178 197.564C76.9071 189.388 73.2581 180.791 71.3826 172.452C69.5071 164.114 70.5672 153.406 78.3416 149.855C76.0695 138.904 73.7974 127.953 71.5253 117.002C69.8322 108.842 68.9827 98.5029 76.0027 94.0109C71.0565 92.4769 66.6667 89.2095 63.7776 84.9117C66.8975 89.6871 72.9065 92.3968 78.551 91.5735C71.418 76.1108 63.5089 61.0062 54.8636 46.3354C64.1791 60.3816 72.4236 75.1379 79.5019 90.4341C112.24 89.5483 145.029 90.5569 177.651 93.4532C181.983 93.8377 186.644 94.3976 189.846 97.3397C194.447 101.568 201.355 103.11 207.317 101.24C209.214 105.943 210.61 111.225 208.997 116.032C207.385 120.84 201.673 124.509 197.107 122.304C198.299 128.436 199.491 134.567 200.682 140.699C212.357 140.84 224.03 141.078 235.7 141.414C241.885 141.593 248.35 141.874 253.726 144.938C259.101 148.003 262.895 154.791 260.5 160.496C262.028 155.781 263.555 151.066 265.082 146.35C270.465 154.895 273.109 165.137 272.534 175.22C274.399 172.382 276.264 169.545 278.129 166.707C271.503 156.28 270.66 142.421 275.972 131.268C281.182 139.895 284.116 149.883 284.401 159.957C286.344 141.801 299.208 125.248 316.322 118.882C313.353 125.724 310.384 132.566 307.415 139.408C304.873 145.266 301.643 151.764 295.534 153.625C291.505 154.852 285.67 154.778 284.939 158.926C296.513 155.892 308.832 155.741 320.477 158.493C311.504 169.281 294.212 171.937 282.415 164.34C276.85 170.547 272.027 177.42 268.085 184.766C274.782 176.442 285.205 171.237 295.883 170.883C290.146 177.663 283.676 183.822 276.62 189.217C280.365 189.577 284.414 190.07 287.13 192.672C289.846 195.275 289.914 200.753 286.41 202.123ZM130.221 133.794C133.324 133.759 136.8 133.869 138.967 136.091C140.619 137.787 141.062 140.287 141.422 142.627C143.07 153.329 144.613 164.046 146.05 174.778C146.411 177.47 144.154 179.954 141.576 180.807C138.997 181.661 136.194 181.286 133.506 180.903C135.747 178.968 139.532 180.355 141.945 178.638C144.108 177.098 144.096 173.936 143.837 171.293C142.865 161.383 141.543 151.508 139.872 141.692C139.576 139.957 139.215 138.111 137.985 136.851C136.349 135.173 133.733 135.062 131.389 135.059C121.768 135.047 112.147 135.035 102.526 135.023C100.868 135.021 99.1228 135.041 97.6832 135.864C93.5405 138.231 95.0677 144.485 97.1271 148.79C102.961 147.607 108.922 147.052 114.874 147.139C120.147 147.216 126.723 148.928 127.612 154.126C129.565 165.545 131.519 176.965 133.472 188.384C134.496 194.372 135.061 201.646 130.276 205.388C127.885 207.258 124.711 207.704 121.7 208.085C114.296 209.021 106.891 209.957 99.4871 210.893C102.571 237.895 105.655 264.897 108.739 291.899C109.083 294.911 109.712 298.373 112.361 299.848C113.927 300.721 115.828 300.649 117.618 300.552C141.211 299.265 164.78 297.562 188.312 295.442C187.371 293.297 187.352 290.765 188.262 288.607C190.645 302.561 193.029 316.514 195.412 330.468C199.585 327.591 198.944 321.348 197.836 316.402C195.031 303.88 192.226 291.358 189.421 278.836C188.285 280.919 187.15 283.002 186.014 285.085C185.456 282.484 187.017 279.793 189.182 278.247C191.346 276.701 194.014 276.067 196.615 275.509C204.612 273.794 212.696 272.485 220.825 271.587C218.462 254.922 216.1 238.258 213.738 221.593C199.214 225.583 183.834 224.327 168.827 223.041C164.382 222.66 158.734 221.164 158.31 216.723C157.244 205.559 156.179 194.396 155.113 183.232C154.974 181.777 154.131 179.816 152.743 180.275C149.331 181.401 147.303 176.541 147.023 172.959C146.147 161.725 145.271 150.49 144.395 139.256C144.281 137.782 144.251 136.082 145.35 135.093C146.119 134.401 147.227 134.275 148.257 134.18C155.608 133.508 162.959 132.836 170.31 132.164C174.508 131.78 179.276 131.582 182.331 134.487C184.487 136.537 185.21 139.646 185.665 142.586C186.504 148.005 186.782 153.51 186.492 158.985C185.91 153.633 185.327 148.281 184.745 142.929C184.483 140.52 184.163 137.967 182.641 136.082C180.045 132.864 175.214 132.918 171.093 133.257C163.732 133.863 156.371 134.469 149.01 135.074C148.019 135.156 146.944 135.273 146.224 135.959C145.286 136.851 145.313 138.327 145.407 139.618C146.195 150.475 146.984 161.332 147.773 172.19C147.921 174.239 148.124 176.43 149.42 178.024C150.715 179.619 153.526 180.12 154.737 178.459C153.078 174.814 155.372 170.35 158.767 168.225C162.163 166.1 166.33 165.726 170.322 165.408C177.208 164.858 184.094 164.309 190.98 163.76C190.508 149.507 188.971 135.291 186.386 121.267C184.005 120.601 181.836 119.193 180.258 117.289C179.077 120.331 175.56 122.264 172.359 121.631C169.158 120.997 166.642 117.869 166.71 114.607C166.33 118.361 163.059 121.618 159.303 121.981C155.547 122.344 151.713 119.774 150.622 116.162C148.823 118.169 146.489 119.897 143.806 120.141C141.123 120.385 138.155 118.691 137.718 116.032C134.194 120.604 126.005 120.14 123.02 115.2C119.95 120.267 111.209 120.142 108.284 114.99C106.971 119.753 99.6396 120.135 96.1206 116.666C92.6016 113.197 91.9166 107.854 91.4269 102.937C85.6183 108.533 84.5703 117.524 85.6728 125.515C86.7753 133.505 89.6482 141.203 90.3451 149.239C91.9365 149.639 93.6819 149.386 95.0945 148.551C93.5687 143.94 92.5653 137.745 96.7074 135.209C98.3688 134.192 100.425 134.139 102.373 134.117C111.656 134.009 120.938 133.902 130.221 133.794ZM222.179 211.394C234.355 210.79 246.917 212.377 258.488 208.539C260.279 207.945 262.114 207.163 263.267 205.67C260.311 204.312 257.172 201.969 257.245 198.717C257.292 196.581 258.772 194.734 260.44 193.399C262.19 191.997 264.228 190.955 266.39 190.358C266.565 189.823 265.624 189.707 265.158 190.024C264.692 190.34 263.985 190.731 263.675 190.261C263.592 190.135 263.575 189.977 263.56 189.827C262.398 178.007 260.677 166.243 258.404 154.586C257.721 151.081 256.705 147.177 253.616 145.386C251.948 144.419 249.949 144.256 248.025 144.123C233.546 143.121 219.039 142.508 204.526 142.283C201.096 142.23 197.259 142.358 194.855 144.804C193.031 146.66 192.509 149.416 192.315 152.011C191.717 160.046 193.438 168.045 194.557 176.024C195.898 185.582 196.381 195.237 197.265 204.849C197.383 206.128 197.526 207.461 198.218 208.543C199.404 210.398 201.812 210.98 203.992 211.286C207.214 211.737 210.472 211.928 213.724 211.856C216.546 211.794 219.359 211.534 222.179 211.394ZM122.245 149.393C118.123 147.581 113.402 148.066 108.929 148.586C102.163 149.371 95.3976 150.157 88.6318 150.942C85.38 151.32 82.1249 151.698 78.9079 152.304C78.1323 152.451 77.3541 152.612 76.6224 152.907C73.755 154.066 72.0455 157.158 71.6477 160.225C71.2499 163.292 71.9316 166.384 72.5852 169.407C74.6162 178.802 76.4176 188.285 76.9062 197.885C77.0029 199.785 77.0515 201.711 77.5738 203.54C78.0961 205.37 79.1627 207.13 80.8302 208.047C82.113 208.752 83.62 208.898 85.0806 208.994C98.4686 209.874 111.849 207.715 125.093 205.563C126.977 205.257 128.959 204.908 130.428 203.689C132.696 201.806 133.035 198.493 133.019 195.545C132.989 190.1 132.33 184.659 131.059 179.364C129.572 173.172 127.238 167.081 127.176 160.713C127.149 157.904 127.518 154.878 126.052 152.482C125.186 151.066 123.765 150.061 122.245 149.393ZM58.5386 267.308C60.3383 280.239 60.943 293.336 60.3423 306.378C60.3107 307.066 61.146 307.416 61.822 307.545C70.4795 309.2 79.3953 307.079 87.7962 304.412C92.5717 302.895 97.351 301.167 101.481 298.331C103.37 297.033 105.282 295.078 104.929 292.813C102.659 278.263 101.411 263.554 101.196 248.831C93.5522 254.803 83.8521 257.338 74.4509 259.729C69.9951 260.863 65.4789 262.004 60.8813 261.966C59.77 261.956 58.8471 262.933 58.5365 264C58.226 265.067 58.3854 266.207 58.5386 267.308M234.241 273.844C219.923 272.45 205.316 274.087 191.662 278.617C192.482 284.854 193.602 291.051 195.018 297.18C195.584 299.634 196.198 302.078 196.812 304.52C198.008 309.278 199.204 314.036 200.399 318.793C200.566 319.455 200.774 320.179 201.345 320.554C201.855 320.888 202.514 320.85 203.121 320.799C217.26 319.62 231.39 318.343 245.511 316.967C242.424 303.207 239.337 289.446 236.25 275.685C236.132 275.157 235.989 274.587 235.568 274.246C235.204 273.95 234.708 273.89 234.241 273.844ZM213.134 213.439C210.019 213.598 206.856 213.753 203.814 213.061C200.772 212.37 197.812 210.712 196.249 208.012C195.353 209.044 193.57 209.121 192.587 208.171C191.604 207.22 191.622 205.436 192.624 204.505C188.666 204.541 184.708 204.577 180.75 204.612C182.559 205.678 182.41 208.819 180.54 209.774C178.671 210.728 176.082 209.116 176.039 207.017C176.02 206.075 176.597 205.017 177.536 204.933C177.147 204.266 176.136 204.661 175.368 204.588C174.21 204.478 173.577 203.216 173.17 202.126C171.522 197.705 170.023 193.231 168.524 188.757C169.574 190.475 171.938 191.248 173.8 190.482C174.457 190.211 174.477 189.265 174.197 188.611C173.708 187.47 172.594 186.59 171.356 186.493C170.118 186.395 168.829 187.152 168.411 188.321C167.79 187.857 168.055 186.784 168.706 186.364C169.357 185.944 170.19 185.981 170.964 186.027C178.264 186.468 185.591 186.461 192.89 186.007C193.222 185.986 193.589 185.949 193.815 185.705C194.071 185.429 194.047 185.003 194.006 184.629C193.727 182.062 193.448 179.494 193.169 176.927C193.138 176.642 193.094 176.33 192.881 176.139C192.647 175.927 192.294 175.937 191.979 175.959C182.829 176.611 173.703 177.596 164.625 178.912C163.659 179.052 162.76 178.241 162.455 177.313C162.15 176.385 162.291 175.377 162.435 174.412C162.485 174.073 162.55 173.706 162.801 173.473C163.032 173.258 163.367 173.208 163.68 173.168C173.125 171.962 182.631 171.239 192.15 171.001C191.919 171.942 190.693 172.144 189.724 172.161C180.89 172.318 172.066 173.026 163.32 174.28C162.622 175.475 163.579 177.083 164.868 177.585C166.157 178.088 167.601 177.819 168.961 177.563C176.454 176.153 184.057 175.322 191.678 175.08C192.766 175.045 192.896 173.479 192.668 172.415C192.137 169.943 191.605 167.471 191.074 165C185.797 165.999 180.405 166.398 175.038 166.186C171.862 166.06 168.703 166.615 165.573 167.168C162.912 167.638 160.078 168.195 158.155 170.093C155.908 172.311 155.505 175.78 155.642 178.934C155.866 184.11 157.179 189.172 157.827 194.312C158.619 200.591 158.415 206.957 159.024 213.257C159.188 214.954 159.421 216.683 160.182 218.209C160.943 219.735 162.327 221.045 164.013 221.297C177.872 223.363 192.003 223.598 205.923 221.993C207.208 221.844 208.506 221.677 209.719 221.228C211.635 220.52 213.278 219.099 214.255 217.305C214.648 216.585 214.94 215.762 214.797 214.954C214.654 214.147 213.953 213.397 213.134 213.439ZM102.338 248.843C103.789 264.8 105.239 280.757 106.689 296.713C106.95 299.581 107.201 302.544 106.305 305.281C105.408 308.018 103.05 310.491 100.172 310.586C101.862 313.057 104.778 314.471 107.727 314.988C110.676 315.506 113.7 315.232 116.681 314.956C141.247 312.687 165.813 310.417 190.379 308.147C189.852 305.077 189.325 302.008 188.797 298.938C188.679 298.249 188.34 297.375 187.643 297.427C170.753 298.686 153.862 299.944 136.972 301.203C130.036 301.72 123.066 302.237 116.134 301.67C112.626 301.383 108.294 299.989 107.948 296.487C105.179 268.465 101.973 240.486 98.3325 212.564C98.2765 212.134 98.2071 211.675 97.9134 211.357C97.5214 210.932 96.8726 210.899 96.2944 210.896C92.8405 210.879 89.3867 210.861 85.9328 210.843C86.9416 216.566 88.251 222.235 89.8538 227.82C90.15 228.852 90.6428 230.057 91.7003 230.243C95.498 230.91 98.4954 234.033 100.058 237.558C101.62 241.084 101.989 245.003 102.338 248.843ZM89.0685 149.519C86.104 134.483 83.5957 119.357 81.5483 104.169C81.4325 103.31 81.3205 102.42 81.5732 101.591C82.0943 99.8818 83.9633 98.9863 85.7016 98.574C89.0999 97.7679 92.6486 98.0368 96.1318 98.2937C127.977 100.642 159.926 101.581 191.855 101.109C190.585 98.5331 188.031 96.7764 185.315 95.8448C182.599 94.9132 179.696 94.7065 176.831 94.5085C148.726 92.5662 120.578 90.746 92.4072 91.0852C88.9606 91.1267 85.4738 91.2061 82.1459 92.1035C78.818 93.001 75.616 94.8085 73.6961 97.6711C70.6707 102.182 71.4024 108.14 72.3389 113.491C74.5318 126.02 77.1997 138.465 80.335 150.792C83.2461 150.368 86.1573 149.944 89.0685 149.519ZM157.638 120.132C159.159 120.148 160.741 120.062 162.088 119.353C164.459 118.105 165.512 115.229 165.669 112.553C165.826 109.877 165.297 107.196 165.468 104.521C165.506 103.911 165.847 103.103 166.438 103.256C166.867 106.335 167.295 109.415 167.723 112.494C167.96 114.194 168.206 115.926 168.951 117.472C169.696 119.018 171.034 120.377 172.72 120.701C173.688 120.887 174.699 120.721 175.621 120.374C177.831 119.543 179.682 117.429 179.598 115.071C179.482 111.814 179.366 108.558 179.25 105.301C179.204 104.013 178.726 102.296 177.438 102.364C168.855 102.813 160.246 102.774 151.668 102.245C151.043 102.206 150.877 103.092 150.944 103.716C151.287 106.946 151.63 110.176 151.974 113.406C152.233 115.844 152.786 118.711 155.024 119.714C155.835 120.078 156.749 120.122 157.638 120.132ZM201.659 322.814C201.248 323.102 200.976 323.546 200.726 323.981C199.424 326.247 198.378 328.66 197.614 331.159C212.638 330.109 227.65 328.889 242.647 327.5C243.211 327.448 243.822 327.374 244.227 326.978C244.489 326.721 244.624 326.364 244.751 326.019C245.312 324.494 245.873 322.969 246.435 321.444C246.708 320.702 246.95 319.779 246.416 319.196C245.973 318.711 245.218 318.727 244.563 318.779C230.852 319.878 217.147 321.061 203.45 322.328C202.827 322.386 202.172 322.455 201.659 322.814ZM228.144 230.248C227.738 225.508 226.91 220.188 223.042 217.419C221.532 221.576 220.008 225.795 219.663 230.204C219.318 234.613 220.292 239.312 223.249 242.601C223.665 243.063 224.127 243.511 224.347 244.092C224.568 244.673 224.456 245.44 223.916 245.748C219.896 242.251 218.232 236.641 218.326 231.313C218.421 225.985 220.054 220.819 221.671 215.742C222.027 214.627 221.01 213.453 219.869 213.193C218.727 212.933 217.548 213.315 216.44 213.692C216.224 213.765 216.129 214.011 216.061 214.229C215.294 216.671 214.521 219.26 215.115 221.75C217.672 232.478 217.342 243.738 219.946 254.454C220.042 254.85 220.146 255.254 220.376 255.59C222.103 252.214 223.83 248.838 225.556 245.462C226.368 243.875 227.184 242.278 227.69 240.569C228.675 237.247 228.439 233.701 228.144 230.248ZM289.225 152.378C289.559 152.653 290.006 152.74 290.436 152.788C295.319 153.334 299.927 150.011 302.631 145.908C305.335 141.806 306.612 136.959 308.384 132.377C310.048 128.076 312.176 123.955 314.719 120.109C309.627 124.887 303.359 128.232 298.044 132.761C292.729 137.289 288.206 143.64 288.581 150.612C288.616 151.257 288.727 151.967 289.225 152.378ZM93.6673 106.174C94.3614 109.217 94.0745 112.598 95.7602 115.224C97.3944 117.771 100.842 118.984 103.71 118.023C106.579 117.062 108.599 114.017 108.37 111C108.318 110.314 108.163 109.641 108.009 108.971C107.404 106.346 106.8 103.721 106.195 101.096C106.135 100.835 106.068 100.56 105.883 100.367C105.617 100.089 105.192 100.057 104.808 100.042C101.116 99.9005 97.4235 99.7592 93.731 99.6178C93.3758 99.6042 92.9859 99.6015 92.7098 99.8254C92.3604 100.109 92.3403 100.629 92.3858 101.077C92.563 102.822 93.2771 104.464 93.6673 106.174ZM193.618 109.013C193.707 113.215 196.445 116.87 199.332 119.925C199.614 120.223 199.904 120.522 200.256 120.733C200.826 121.074 201.519 121.154 202.181 121.097C204.411 120.906 206.319 119.219 207.261 117.188C208.203 115.156 208.309 112.832 208.106 110.603C207.903 108.373 207.41 106.177 207.211 103.947C207.171 103.5 207.007 102.916 206.557 102.918C202.61 102.933 198.662 102.948 194.715 102.963C194.21 102.965 193.675 102.975 193.248 103.245C192.822 103.516 192.584 104.147 192.9 104.541C193.866 105.743 193.586 107.47 193.618 109.013ZM253.649 239.014C242.833 238.824 232.919 245.235 225.354 252.967C224.079 254.27 222.834 255.637 221.985 257.251C221.835 257.537 221.716 257.934 221.962 258.143C222.093 258.254 222.281 258.261 222.452 258.26C228.745 258.238 234.796 255.58 239.908 251.912C245.021 248.243 249.328 243.588 253.649 239.014ZM119.822 117.26C121.367 116.37 122.361 114.599 122.316 112.817C122.293 111.913 122.026 111.036 121.811 110.158C121.259 107.898 121.044 105.556 121.176 103.233C121.204 102.738 121.247 102.23 121.098 101.758C120.949 101.285 120.555 100.85 120.06 100.823C115.973 100.6 111.886 100.377 107.799 100.154C107.652 100.146 107.492 100.141 107.373 100.228C107.189 100.363 107.199 100.637 107.233 100.863C107.736 104.188 109.346 107.321 109.449 110.683C109.487 111.92 109.322 113.188 109.668 114.376C110.112 115.898 111.379 117.099 112.849 117.691C114.319 118.283 115.969 118.317 117.529 118.035C118.327 117.891 119.119 117.664 119.822 117.26ZM283.358 162.792C286.318 163.627 288.935 165.373 291.807 166.474C298.173 168.916 305.75 167.896 311.244 163.859C313.603 162.126 315.962 160.392 318.321 158.658C315.446 159.339 312.471 159.6 309.521 159.43C304.591 159.146 299.723 157.669 294.799 158.039C290.61 158.353 286.537 160.046 283.358 162.792ZM198.834 140.014C198.252 136.791 197.671 133.568 197.089 130.346C196.309 126.026 195.529 121.707 194.75 117.388C194.694 117.081 194.627 116.752 194.4 116.539C194.173 116.326 193.73 116.326 193.606 116.611C192.828 118.409 191.233 119.834 189.36 120.406C188.223 120.753 188.126 122.304 188.258 123.485C189.19 131.819 190.293 140.133 191.567 148.421C191.938 145.032 194.843 142.088 198.227 141.672C198.886 141.591 198.952 140.667 198.834 140.014ZM136.648 113.801C136.287 110.327 135.831 106.862 135.281 103.413C135.167 102.701 134.864 101.814 134.145 101.783C130.425 101.62 126.705 101.456 122.985 101.293C122.852 101.287 122.712 101.283 122.595 101.345C122.295 101.505 122.344 101.943 122.432 102.271C123.29 105.456 123.745 108.749 123.784 112.048C123.793 112.859 123.784 113.702 124.124 114.439C124.624 115.524 125.762 116.147 126.844 116.653C128.729 117.537 130.79 118.313 132.847 117.992C134.904 117.672 136.864 115.872 136.648 113.801ZM138.257 113.82C138.632 115.638 139.32 117.753 141.101 118.275C142.604 118.716 144.229 118.838 145.737 118.413C147.244 117.988 148.619 116.976 149.294 115.562C149.774 114.556 149.882 113.417 149.945 112.304C150.116 109.254 149.998 106.189 149.593 103.161C149.571 102.999 149.547 102.833 149.466 102.691C149.248 102.315 148.737 102.262 148.303 102.253C144.515 102.171 140.727 102.088 136.939 102.005C136.63 101.999 136.198 102.32 136.459 102.486C136.883 106.289 137.483 110.072 138.257 113.82ZM265.538 151.44C262.579 158.13 261.707 165.726 263.074 172.912C263.62 175.783 264.694 178.83 267.179 180.367C267.911 180.82 269.13 180.953 269.4 180.137C272.544 170.653 271.077 159.756 265.538 151.44ZM73.7412 235.435C74.9965 236.297 76.4114 236.924 77.8925 237.277C79.7639 237.723 81.7074 237.728 83.6306 237.775C88.1247 237.883 92.6131 238.227 97.0711 238.806C97.6931 238.886 98.2072 238.213 98.1908 237.586C98.1743 236.959 97.793 236.406 97.3977 235.919C95.02 232.99 91.5478 230.971 87.8261 230.354C85.1896 229.916 82.4938 230.162 79.8225 230.085C77.1511 230.008 74.3627 229.556 72.2324 227.942C72.1196 229.476 72.1106 231.019 72.2055 232.554C72.2439 233.176 72.3067 233.82 72.6235 234.357C72.889 234.806 73.3108 235.14 73.7412 235.435ZM181.864 116.239C182.283 117 182.957 117.586 183.646 118.115C184.394 118.687 185.201 119.223 186.119 119.434C188.379 119.951 190.689 118.277 191.642 116.163C192.594 114.049 192.498 111.626 192.277 109.319C192.111 107.574 191.883 105.834 191.597 104.105C191.549 103.817 191.493 103.515 191.312 103.286C190.994 102.884 190.412 102.837 189.899 102.824C187.144 102.75 184.389 102.677 181.634 102.604C181.024 102.588 180.158 102.879 180.339 103.462C181.15 106.071 181.503 108.821 181.379 111.549C181.306 113.142 181.094 114.843 181.864 116.239ZM279.364 164.672C282.289 159.952 283.165 154.009 281.725 148.645C280.453 143.903 277.494 139.703 276.556 134.884C274.37 141.517 272.169 148.657 274.147 155.355C275.16 158.788 277.207 161.816 279.364 164.672ZM230.906 238.935C239.606 236.695 247.636 231.918 253.757 225.342C255.588 223.375 257.463 221.448 259.379 219.563C254.685 220.206 250.102 221.658 245.893 223.835C239.472 227.157 233.838 232.328 230.906 238.935ZM283.909 181.192C287.108 178.185 290.308 175.178 293.507 172.171C282.687 173.55 272.582 179.802 266.518 188.87C268.081 190.074 270.324 189.365 272.147 188.611C274.682 187.562 277.24 186.502 279.497 184.942C281.086 183.844 282.501 182.515 283.909 181.192ZM73.4648 246.911C73.4918 247.189 73.5246 247.483 73.693 247.706C74.0613 248.193 74.8121 248.074 75.3986 247.902C82.113 245.94 88.7332 243.656 95.2286 241.059C95.697 240.872 96.2432 240.576 96.2525 240.071C91.2695 239.726 86.2865 239.38 81.3035 239.035C80.0847 238.95 78.8611 238.865 77.6664 238.61C75.869 238.226 74.1552 237.456 72.6752 236.366C72.7837 239.89 73.1243 243.402 73.4648 246.911ZM230.875 213.196C230.473 213.487 230.311 213.999 230.172 214.475C229.698 216.109 229.221 217.844 229.662 219.488C229.886 220.326 230.337 221.082 230.782 221.826C232.014 223.885 233.245 225.944 234.477 228.002C234.592 228.194 234.716 228.395 234.914 228.499C235.502 228.808 236.083 228.082 236.356 227.477C238.128 223.545 239.941 219.388 239.539 215.094C239.477 214.433 239.298 213.684 238.708 213.381C238.437 213.242 238.122 213.225 237.818 213.209C235.992 213.119 234.166 213.028 232.34 212.937C231.835 212.912 231.285 212.899 230.875 213.196ZM258.784 198.641C258.737 201.408 261.151 203.721 263.799 204.527C266.447 205.332 269.289 204.986 272.04 204.69C276.879 204.171 281.997 203.742 285.974 200.939C286.857 200.317 287.691 199.549 288.085 198.544C288.7 196.975 288.082 195.124 286.926 193.898C285.77 192.673 284.167 191.972 282.562 191.459C276.829 189.623 270.464 189.835 264.865 192.046C261.912 193.213 258.838 195.465 258.784 198.641ZM73.0092 226.908C73.5304 227.394 74.5868 227.518 74.79 226.835C75.4863 224.494 77.0517 222.487 78.8957 220.885C80.7397 219.284 82.8657 218.047 84.9776 216.82C85.5472 216.489 85.5114 215.669 85.4013 215.019C85.188 213.761 84.9748 212.503 84.7616 211.245C84.7075 210.926 84.6009 210.546 84.289 210.461C84.0337 210.391 83.7815 210.563 83.5729 210.726C82.0579 211.909 80.5428 213.093 79.0278 214.276C75.9921 216.646 72.7388 219.366 72.0805 223.161C71.8511 224.483 72.028 225.992 73.0092 226.908ZM84.8275 218.439C81.425 220.564 77.8233 222.916 76.277 226.618C76.1807 226.848 76.0919 227.09 76.0995 227.34C76.1144 227.832 76.5112 228.248 76.9662 228.437C77.4212 228.626 77.9279 228.634 78.4206 228.64C81.3334 228.675 84.2462 228.709 87.159 228.743C87.3006 228.745 87.4544 228.743 87.5661 228.656C87.7429 228.518 87.7248 228.25 87.6898 228.029C87.2252 225.092 86.7605 222.156 86.2959 219.22C86.2298 218.802 86.0949 218.302 85.6874 218.188C85.3909 218.106 85.0886 218.275 84.8275 218.439ZM229.543 213.376C227.399 212.823 225.085 212.944 223.01 213.717C223.412 215.036 224.124 216.259 225.073 217.26C228.27 220.631 229.216 225.525 229.579 230.157C229.773 232.631 229.841 235.115 229.784 237.596C231.188 235.429 232.592 233.263 233.997 231.096C234.137 230.881 234.281 230.653 234.296 230.396C234.311 230.14 234.195 229.896 234.077 229.668C232.691 226.992 230.654 224.684 229.368 221.958C228.082 219.232 227.688 215.752 229.543 213.376ZM85.858 99.9616C84.6751 100.149 83.3263 100.45 82.7645 101.508C82.376 102.239 82.4906 103.124 82.6155 103.942C83.1296 107.313 83.6437 110.685 84.1578 114.056C86.7887 109.325 89.2521 104.504 91.7149 99.6832C91.2591 99.1678 90.4513 99.233 89.7718 99.3408C88.4672 99.5477 87.1626 99.7547 85.858 99.9616ZM247.791 214.431C248.156 214.915 249.106 214.38 248.882 213.817C252.396 214.826 256.227 214.108 259.546 212.575C262.864 211.043 265.762 208.746 268.614 206.459C267.416 206.291 266.219 206.124 265.021 205.957C264.777 205.923 264.46 205.927 264.366 206.156C263.721 207.734 262.333 208.917 260.8 209.664C259.267 210.41 257.58 210.772 255.912 211.127C254.754 211.374 253.597 211.62 252.439 211.867C250.646 212.249 248.625 212.799 247.791 214.431ZM184.224 189.985C184.449 189.928 184.691 189.86 184.835 189.678C185.058 189.395 184.946 188.989 184.888 188.633C184.829 188.278 184.919 187.805 185.274 187.743C185.598 187.807 185.747 188.191 185.755 188.521C185.763 188.851 185.69 189.195 185.809 189.502C186.075 190.187 187.02 190.214 187.749 190.121C188.18 190.066 188.611 190.011 189.042 189.957C189.177 189.939 189.322 189.918 189.422 189.826C189.741 189.534 189.297 189.057 189.199 188.636C189.122 188.31 189.274 187.959 189.175 187.64C189.005 187.096 188.282 187.013 187.713 187.032C183.361 187.176 179.009 187.321 174.658 187.465C174.732 188.289 174.958 189.098 175.319 189.842C175.397 190.002 175.489 190.168 175.643 190.256C175.8 190.346 175.992 190.34 176.173 190.332C177.255 190.282 178.336 190.232 179.418 190.181C179.51 190.177 179.607 190.171 179.684 190.12C179.881 189.99 179.813 189.689 179.722 189.47C179.566 189.094 179.41 188.718 179.254 188.341C179.118 188.014 179.71 187.82 179.96 188.072C180.209 188.324 180.218 188.719 180.336 189.053C180.58 189.747 181.318 190.17 182.048 190.259C182.778 190.348 183.511 190.166 184.224 189.985ZM247.426 213.022C247.663 212.77 247.14 212.506 246.796 212.548C244.837 212.788 242.877 213.029 240.917 213.269C240.656 213.301 240.31 213.445 240.372 213.701C241.016 216.338 240.774 219.183 239.695 221.673C239.49 222.148 239.355 222.872 239.847 223.031C241.89 219.363 244.45 215.983 247.426 213.022ZM180.657 191.973C180.595 191.76 180.526 191.537 180.364 191.386C180.18 191.214 179.914 191.171 179.664 191.143C178.38 191.003 177.071 191.091 175.817 191.403C176.209 192.674 176.602 193.946 176.994 195.218C177.068 195.459 177.168 195.73 177.402 195.824C177.522 195.873 177.656 195.864 177.784 195.855C179.052 195.766 180.32 195.677 181.588 195.589C181.312 194.375 181.002 193.169 180.657 191.973ZM172.403 196.421C172.544 196.498 172.716 196.474 172.875 196.449C174.022 196.262 175.17 196.074 176.318 195.887C175.903 194.56 175.489 193.233 175.075 191.906C175.014 191.711 174.939 191.498 174.759 191.401C174.617 191.324 174.445 191.34 174.285 191.359C173.261 191.478 172.238 191.597 171.215 191.716C171.023 191.738 170.795 191.786 170.723 191.966C170.675 192.089 170.721 192.226 170.767 192.349C171.217 193.566 171.668 194.782 172.119 195.999C172.179 196.162 172.251 196.338 172.403 196.421ZM185.297 191.119C185.055 190.908 184.696 190.923 184.375 190.949C183.365 191.032 182.354 191.115 181.343 191.198C181.645 192.494 182.026 193.771 182.481 195.02C182.541 195.184 182.609 195.356 182.748 195.461C182.922 195.593 183.16 195.585 183.377 195.572C184.067 195.531 184.757 195.489 185.447 195.447C185.765 195.428 186.151 195.36 186.258 195.06C186.309 194.916 186.276 194.757 186.242 194.608C186.032 193.673 185.823 192.739 185.613 191.804C185.557 191.554 185.49 191.287 185.297 191.119ZM179.268 200.424C179.168 200.44 179.061 200.459 178.989 200.529C178.847 200.666 178.912 200.901 178.986 201.083C179.252 201.733 179.517 202.383 179.783 203.033C179.881 203.274 179.992 203.53 180.212 203.67C180.415 203.799 180.671 203.801 180.912 203.8C181.829 203.794 182.746 203.789 183.663 203.783C183.797 203.783 183.943 203.778 184.047 203.692C184.234 203.537 184.164 203.239 184.078 203.012C183.725 202.082 183.372 201.152 183.019 200.222C182.906 199.923 182.491 199.919 182.176 199.968C181.206 200.12 180.237 200.272 179.268 200.424ZM186.984 190.935C186.791 190.936 186.575 190.947 186.445 191.089C186.288 191.261 186.338 191.53 186.397 191.755C186.658 192.741 186.918 193.726 187.179 194.712C187.225 194.885 187.278 195.071 187.417 195.184C187.602 195.334 187.869 195.306 188.105 195.27C188.974 195.137 189.844 195.005 190.713 194.872C190.62 193.863 190.46 192.86 190.234 191.872C190.163 191.564 190.066 191.226 189.798 191.057C189.598 190.93 189.346 190.926 189.109 190.927C188.401 190.93 187.693 190.933 186.984 190.935ZM188.754 203.667C188.472 202.644 188.19 201.621 187.909 200.598C187.801 200.207 187.648 199.764 187.271 199.617C187.085 199.544 186.877 199.56 186.678 199.578C185.75 199.658 184.823 199.739 183.895 199.82C184.139 200.736 184.429 201.641 184.762 202.529C184.93 202.976 185.185 203.483 185.656 203.559C186.679 203.724 187.722 203.761 188.754 203.667ZM190.369 203.596C191.21 203.665 192.133 203.712 192.813 203.212C192.518 202.066 192.223 200.92 191.928 199.773C191.862 199.515 191.773 199.228 191.537 199.105C191.363 199.015 191.155 199.04 190.961 199.067C190.128 199.183 189.294 199.298 188.461 199.414C188.659 200.628 188.995 201.819 189.461 202.956C189.533 203.131 189.613 203.312 189.763 203.427C189.931 203.557 190.157 203.579 190.369 203.596ZM265.31 187.28C265.952 185.962 266.594 184.643 267.237 183.325C267.304 183.186 267.374 183.036 267.349 182.884C267.325 182.736 267.217 182.618 267.114 182.509C266.2 181.542 265.285 180.575 264.371 179.608C263.991 180.127 264.035 180.833 264.095 181.473C264.294 183.575 264.493 185.676 264.692 187.778C264.972 187.84 265.184 187.538 265.31 187.28ZM191.293 190.783C191.173 190.774 191.036 190.772 190.952 190.858C190.858 190.955 190.879 191.112 190.906 191.244C191.087 192.116 191.268 192.989 191.449 193.862C191.516 194.185 191.596 194.531 191.84 194.754C192.629 195.474 194.151 194.235 194.885 195.012C195.014 193.773 194.921 192.511 194.612 191.304C194.59 191.219 194.565 191.13 194.499 191.071C194.424 191.003 194.315 190.993 194.215 190.986C193.241 190.918 192.267 190.851 191.293 190.783ZM173.124 197.255C173.019 197.269 172.909 197.285 172.823 197.347C172.631 197.483 172.638 197.766 172.666 198C172.739 198.624 172.82 199.27 173.146 199.807C173.473 200.344 174.118 200.742 174.725 200.579C175.595 200.346 176.464 200.112 177.334 199.879C177.297 199.048 177.128 198.223 176.837 197.443C176.765 197.249 176.673 197.043 176.495 196.938C176.309 196.829 176.077 196.854 175.863 196.883C174.95 197.007 174.037 197.131 173.124 197.255ZM193.41 189.961C193.672 189.922 193.95 189.874 194.145 189.694C194.724 189.159 194.062 188.071 194.532 187.438C194.715 187.191 194.266 186.969 193.958 186.982C192.584 187.04 191.211 187.098 189.837 187.156C189.89 187.725 189.989 188.289 190.132 188.841C190.291 189.457 190.892 189.879 191.513 190.015C192.135 190.152 192.781 190.057 193.41 189.961ZM182.306 197.361C182.129 196.511 180.991 196.313 180.138 196.472C179.284 196.631 178.331 196.939 177.606 196.462C177.652 197.359 177.861 198.248 178.221 199.071C178.297 199.244 178.388 199.424 178.553 199.517C178.738 199.622 178.967 199.589 179.177 199.552C180.018 199.407 180.859 199.262 181.701 199.117C182.118 199.045 182.667 198.715 182.448 198.353C182.273 198.064 182.374 197.691 182.306 197.361ZM177.109 200.85C176.421 200.966 175.734 201.083 175.047 201.199C174.675 201.262 174.216 201.411 174.176 201.787C174.076 202.736 175.021 203.501 175.957 203.69C176.892 203.879 177.863 203.694 178.812 203.788C178.773 202.981 178.604 202.181 178.314 201.427C178.245 201.248 178.163 201.063 178.011 200.946C177.764 200.755 177.416 200.798 177.109 200.85ZM195.223 199.009C194.311 198.912 193.383 198.961 192.486 199.152C192.982 200.333 193.334 201.574 193.532 202.839C193.623 203.419 194.451 203.43 195.02 203.285C195.232 203.231 195.464 203.164 195.585 202.981C195.689 202.824 195.684 202.621 195.676 202.432C195.627 201.391 195.578 200.349 195.529 199.307C195.526 199.241 195.522 199.172 195.484 199.118C195.428 199.038 195.32 199.02 195.223 199.009ZM180.329 208.343C181.189 207.484 180.748 205.751 179.582 205.408C178.417 205.065 177.107 206.283 177.365 207.471C177.632 208.698 179.439 209.23 180.329 208.343ZM187.089 198.28C187.636 197.565 186.817 196.511 185.931 196.356C185.045 196.201 184.146 196.54 183.247 196.527C182.916 196.522 182.902 197.021 183.009 197.334C183.149 197.74 183.288 198.145 183.427 198.551C183.484 198.717 183.588 198.916 183.763 198.905C184.404 198.865 185.046 198.825 185.687 198.784C186.199 198.752 186.777 198.687 187.089 198.28ZM195.955 205.174C195.889 204.995 195.791 204.82 195.637 204.707C195.498 204.606 195.325 204.563 195.154 204.543C193.808 204.381 192.501 205.723 192.7 207.065C193.273 207.746 194.352 207.934 195.122 207.487C195.891 207.04 196.263 206.01 195.955 205.174ZM187.645 197.065C187.616 197.655 188.134 198.158 188.703 198.318C189.272 198.477 189.877 198.374 190.458 198.27C190.756 198.217 191.09 198.14 191.245 197.881C191.578 197.329 190.918 196.315 191.527 196.104C191.118 196.047 190.71 195.991 190.301 195.935C189.761 195.861 189.203 195.788 188.679 195.937C188.156 196.087 187.672 196.521 187.645 197.065ZM192.53 197.82C193.149 198.358 194.186 198.284 194.761 197.699C195.337 197.114 195.412 196.123 194.978 195.426C193.894 195.627 192.81 195.828 191.727 196.029C191.863 196.682 192.027 197.382 192.53 197.82ZM276.275 187.461C275.431 187.774 274.587 188.086 273.743 188.399C273.324 188.554 272.899 188.713 272.536 188.973C273.916 189.512 275.657 188.808 276.275 187.461ZM197.833 120.481C197.811 120.108 197.416 119.803 197.05 119.876C197.073 120.255 197.452 120.574 197.83 120.533L197.833 120.481Z" fill="#170F2B"/>
</svg>
